<?xml version="1.0" encoding="UTF-8"?>
<svg version="1.1" xmlns="http://www.w3.org/2000/svg" width="225" height="225">
<path d="M0 0 C74.25 0 148.5 0 225 0 C225 74.25 225 148.5 225 225 C150.75 225 76.5 225 0 225 C0 150.75 0 76.5 0 0 Z " fill="#FEFEFE" transform="translate(0,0)"/>
<path d="M0 0 C0.22320235 5.15921743 0.38610225 10.31560509 0.49438477 15.47851562 C0.53953126 17.23259439 0.60086921 18.98633651 0.67895508 20.73925781 C1.30526268 35.16480028 1.30526268 35.16480028 -1.61938477 39.27685547 C-4.00223177 40.90058204 -6.32667213 41.92286282 -9 43 C-10.98207423 44.12225661 -12.95172834 45.26665772 -14.91015625 46.4296875 C-16.95892524 47.58171096 -19.00973418 48.73011358 -21.0625 49.875 C-22.11888672 50.46796875 -23.17527344 51.0609375 -24.26367188 51.671875 C-26.84067223 53.11779375 -29.41945281 54.560424 -32 56 C-32 56.99 -32 57.98 -32 59 C-31.20416504 59.4532666 -30.40833008 59.9065332 -29.58837891 60.37353516 C-26.58721093 62.08356885 -23.58663258 63.79462857 -20.58642578 65.50634766 C-19.29694081 66.24177461 -18.00723366 66.97681216 -16.71728516 67.71142578 C-15.46430268 68.42505138 -14.21167565 69.13930143 -12.95941162 69.85418701 C-11.72240341 70.55988193 -10.48432544 71.26370502 -9.24517822 71.96563721 C-4.79760704 74.49791492 -0.49404605 77.20663409 3.74072266 80.07958984 C6.91392403 81.37232479 8.71737166 80.90893289 12 80 C15.19878948 78.51110383 15.19878948 78.51110383 18.4296875 76.578125 C19.02371368 76.2362616 19.61773987 75.89439819 20.22976685 75.54217529 C22.11660082 74.45330885 23.99568597 73.35178349 25.875 72.25 C27.12843726 71.52522997 28.38234002 70.80126437 29.63671875 70.078125 C34.73173888 67.1311819 39.79958973 64.15853296 44.7578125 60.984375 C48 59 48 59 50 59 C50 58.01 50 57.02 50 56 C48.96601074 55.61823608 48.96601074 55.61823608 47.91113281 55.22875977 C44.58701694 53.82568402 41.55277109 52.1337614 38.421875 50.33984375 C37.50381073 49.81494102 37.50381073 49.81494102 36.56719971 49.2794342 C35.28220202 48.54386137 33.99809655 47.80672792 32.71484375 47.06811523 C30.74431712 45.93422994 28.77084508 44.80561226 26.796875 43.67773438 C17.14763617 38.14763617 17.14763617 38.14763617 16 37 C15.91141354 34.26105915 15.88476521 31.5474673 15.90234375 28.80859375 C15.9037587 27.98875504 15.90517365 27.16891632 15.90663147 26.32423401 C15.91224711 23.69528618 15.92480221 21.06642227 15.9375 18.4375 C15.94251299 16.65950643 15.94707624 14.88151154 15.95117188 13.10351562 C15.96222161 8.73564455 15.97949669 4.36783652 16 0 C23.90533873 3.84380896 31.56519222 7.95519894 39.125 12.4375 C41.22878512 13.67512797 43.33296587 14.91208362 45.4375 16.1484375 C46.51515625 16.78233398 47.5928125 17.41623047 48.703125 18.06933594 C55.1257177 21.83043362 61.58330821 25.53117451 68.03955078 29.23413086 C70.1016837 30.42022195 72.13365556 31.65969518 74.13916016 32.93920898 C77.21065388 34.76481518 80.21820076 35.66928182 83.65380859 36.62524414 C90.63194865 38.97220775 96.03933966 41.5739502 100 48 C104.30470153 62.3079341 102.14872271 79.15409642 101.51062012 93.8581543 C101.28433597 99.62178047 101.18483757 105.38749662 101.07421875 111.15429688 C100.83922128 122.44175755 100.46451174 133.71981448 100 145 C99.05091766 144.45694214 98.10183533 143.91388428 97.12399292 143.35437012 C95.85985023 142.63141629 94.59569983 141.90847592 93.33154297 141.18554688 C92.70825607 140.82885925 92.08496918 140.47217163 91.4427948 140.10467529 C86.35824813 137.1975536 81.25031707 134.33463281 76.125 131.5 C73.44375 130.015 70.7625 128.53 68 127 C68 113.8 68 100.6 68 87 C62.85646385 88.92882606 58.91628384 90.42330123 54.35546875 93.109375 C53.34806641 93.69976562 52.34066406 94.29015625 51.30273438 94.8984375 C50.27470703 95.50945312 49.24667969 96.12046875 48.1875 96.75 C46.66286133 97.64332031 46.66286133 97.64332031 45.10742188 98.5546875 C43.06248973 99.75896876 41.03437366 100.99226536 39.02416992 102.25366211 C36 104 36 104 32.8293457 105.15454102 C29.15344465 106.70349439 27.39331073 107.7701572 25 111 C22.99868956 118.90431786 23.64720131 127.35642423 23.8125 135.4375 C23.81946141 137.71808917 23.82146846 139.9986992 23.81835938 142.27929688 C23.82154113 147.85438436 23.88678511 153.42611919 24 159 C29.60406673 156.866257 34.91242522 154.70189269 40.015625 151.51171875 C41.03914063 150.88845703 42.06265625 150.26519531 43.1171875 149.62304688 C45.22578305 148.32029239 47.32988973 147.01024729 49.4296875 145.69335938 C50.44804687 145.07654297 51.46640625 144.45972656 52.515625 143.82421875 C53.42602539 143.25791748 54.33642578 142.69161621 55.27441406 142.1081543 C58.75333711 140.69371219 60.41319996 140.94448703 64 142 C67.15966797 143.58227539 67.15966797 143.58227539 70.4921875 145.59765625 C71.08299103 145.95137802 71.67379456 146.30509979 72.28250122 146.66954041 C74.15216046 147.79169208 76.01354998 148.92679388 77.875 150.0625 C79.14791225 150.82964826 80.42134506 151.59593346 81.6953125 152.36132812 C84.80295885 154.23094068 87.90333269 156.11224471 91 158 C88.0566084 161.1975539 85.11220862 163.27698333 81.328125 165.3984375 C80.20132324 166.03531494 79.07452148 166.67219238 77.91357422 167.32836914 C77.31704041 167.66160187 76.72050659 167.99483459 76.105896 168.33816528 C73.57291462 169.75326776 71.04811549 171.1826861 68.52279663 172.61140442 C67.22764425 173.34403576 65.93208889 174.07595513 64.63613892 174.80717468 C58.6823845 178.16888782 52.7746268 181.60675569 46.875 185.0625 C45.44401978 185.89467041 45.44401978 185.89467041 43.98413086 186.74365234 C39.20669371 189.52352833 34.44565767 192.32646067 29.71490479 195.18492126 C27.3330134 196.62047662 24.94271359 198.04164476 22.55108643 199.46090698 C20.84707437 200.47933609 19.15458058 201.51695874 17.46240234 202.55493164 C16.42937988 203.1658667 15.39635742 203.77680176 14.33203125 204.40625 C13.42171143 204.95603516 12.5113916 205.50582031 11.57348633 206.07226562 C9 207 9 207 6.52294922 206.36010742 C5.69037598 205.91127197 4.85780273 205.46243652 4 205 C3.10063721 204.51893799 2.20127441 204.03787598 1.2746582 203.54223633 C0.29327881 202.97786865 -0.68810059 202.41350098 -1.69921875 201.83203125 C-2.81264648 201.19378418 -3.92607422 200.55553711 -5.07324219 199.89794922 C-6.27804914 199.20289367 -7.48280029 198.5077414 -8.6875 197.8125 C-9.94288672 197.09105251 -11.19842292 196.36986506 -12.45410156 195.64892578 C-15.68120292 193.7949706 -18.90596414 191.93698535 -22.13006592 190.07781982 C-23.90920925 189.05233129 -25.68904049 188.02805128 -27.46923828 187.00439453 C-33.90751903 183.30221719 -40.33986585 179.58999022 -46.76708984 175.86865234 C-49.57267005 174.24700071 -52.38120515 172.63061647 -55.19125366 171.01672363 C-57.98405715 169.41112082 -60.77291032 167.79867811 -63.5625 166.1875 C-64.59858398 165.59437012 -65.63466797 165.00124023 -66.70214844 164.39013672 C-67.64735352 163.84244629 -68.59255859 163.29475586 -69.56640625 162.73046875 C-70.40115479 162.24989014 -71.23590332 161.76931152 -72.09594727 161.27416992 C-74 160 -74 160 -75 158 C-71.08640775 155.75658317 -67.17199874 153.51460061 -63.25683594 151.27392578 C-61.92588282 150.51194703 -60.59515119 149.74958127 -59.26464844 148.98681641 C-57.34889308 147.88862182 -55.4323377 146.79183515 -53.515625 145.6953125 C-52.92380432 145.3556546 -52.33198364 145.0159967 -51.722229 144.66604614 C-50.15280569 143.76917237 -48.57668163 142.88405155 -47 142 C-46.33492432 141.52780029 -45.66984863 141.05560059 -44.98461914 140.5690918 C-43 140 -43 140 -40.08666992 141.1940918 C-38.97912354 141.85578369 -37.87157715 142.51747559 -36.73046875 143.19921875 C-36.131241 143.55007034 -35.53201324 143.90092194 -34.91462708 144.2624054 C-32.99630422 145.38920278 -31.09181335 146.53721293 -29.1875 147.6875 C-27.29170217 148.8157038 -25.39328784 149.93924751 -23.49250793 151.05903625 C-21.7572249 152.0839987 -20.02915661 153.12114699 -18.30151367 154.15893555 C-14.92217355 156.04339934 -11.57784487 157.53956843 -8 159 C-4.41966321 131.60345964 -4.41966321 131.60345964 -11.29150391 106.43408203 C-17.03367431 101.40931839 -23.71107122 99.04799804 -30.96435547 96.95898438 C-35.06879396 95.66235944 -38.31349014 93.64011188 -41.8125 91.1875 C-44.94406397 89.16170206 -47.38075048 87.81121932 -51 87 C-50.95286865 88.15000488 -50.9057373 89.30000977 -50.85717773 90.48486328 C-50.69381585 94.76693244 -50.59080105 99.04872923 -50.50561523 103.33300781 C-50.46045565 105.18406536 -50.39910861 107.0348036 -50.32104492 108.88476562 C-49.69343021 124.14441742 -49.69343021 124.14441742 -52.66113281 128.35913086 C-55.03787662 129.97139243 -57.32483204 130.96255502 -60 132 C-61.80318171 133.03436022 -63.59210115 134.09391536 -65.3671875 135.17578125 C-67.20120243 136.22472284 -69.03715838 137.27027767 -70.875 138.3125 C-72.27878906 139.1178418 -72.27878906 139.1178418 -73.7109375 139.93945312 C-80.61110847 143.87036949 -80.61110847 143.87036949 -84 145 C-84 112.99 -84 80.98 -84 48 C-76.41 43.71 -68.82 39.42 -61 35 C-57.05476644 32.7194911 -53.11495506 30.43518012 -49.1875 28.125 C-39.45171117 22.42123741 -29.68681531 16.76992374 -19.90307617 11.14892578 C-14.17894383 7.85506773 -8.49280388 4.51266742 -2.85888672 1.06640625 C-1 0 -1 0 0 0 Z " fill="#4D4D4D" transform="translate(105,9)"/>
<path d="M0 0 C0.22320235 5.15921743 0.38610225 10.31560509 0.49438477 15.47851562 C0.53953126 17.23259439 0.60086921 18.98633651 0.67895508 20.73925781 C1.30526268 35.16480028 1.30526268 35.16480028 -1.61938477 39.27685547 C-4.00223177 40.90058204 -6.32667213 41.92286282 -9 43 C-10.98207423 44.12225661 -12.95172834 45.26665772 -14.91015625 46.4296875 C-16.95892524 47.58171096 -19.00973418 48.73011358 -21.0625 49.875 C-22.11888672 50.46796875 -23.17527344 51.0609375 -24.26367188 51.671875 C-26.84067223 53.11779375 -29.41945281 54.560424 -32 56 C-32 56.99 -32 57.98 -32 59 C-31.20416504 59.4532666 -30.40833008 59.9065332 -29.58837891 60.37353516 C-26.58721093 62.08356885 -23.58663258 63.79462857 -20.58642578 65.50634766 C-19.29694081 66.24177461 -18.00723366 66.97681216 -16.71728516 67.71142578 C-15.46430268 68.42505138 -14.21167565 69.13930143 -12.95941162 69.85418701 C-11.72240341 70.55988193 -10.48432544 71.26370502 -9.24517822 71.96563721 C-4.79760704 74.49791492 -0.49404605 77.20663409 3.74072266 80.07958984 C6.91392403 81.37232479 8.71737166 80.90893289 12 80 C15.19878948 78.51110383 15.19878948 78.51110383 18.4296875 76.578125 C19.02371368 76.2362616 19.61773987 75.89439819 20.22976685 75.54217529 C22.11660082 74.45330885 23.99568597 73.35178349 25.875 72.25 C27.12843726 71.52522997 28.38234002 70.80126437 29.63671875 70.078125 C34.73173888 67.1311819 39.79958973 64.15853296 44.7578125 60.984375 C48 59 48 59 50 59 C50 58.01 50 57.02 50 56 C48.96601074 55.61823608 48.96601074 55.61823608 47.91113281 55.22875977 C44.58701694 53.82568402 41.55277109 52.1337614 38.421875 50.33984375 C37.50381073 49.81494102 37.50381073 49.81494102 36.56719971 49.2794342 C35.28220202 48.54386137 33.99809655 47.80672792 32.71484375 47.06811523 C30.74431712 45.93422994 28.77084508 44.80561226 26.796875 43.67773438 C17.14763617 38.14763617 17.14763617 38.14763617 16 37 C15.91141354 34.26105915 15.88476521 31.5474673 15.90234375 28.80859375 C15.9037587 27.98875504 15.90517365 27.16891632 15.90663147 26.32423401 C15.91224711 23.69528618 15.92480221 21.06642227 15.9375 18.4375 C15.94251299 16.65950643 15.94707624 14.88151154 15.95117188 13.10351562 C15.96222161 8.73564455 15.97949669 4.36783652 16 0 C23.90533873 3.84380896 31.56519222 7.95519894 39.125 12.4375 C41.22878512 13.67512797 43.33296587 14.91208362 45.4375 16.1484375 C46.51515625 16.78233398 47.5928125 17.41623047 48.703125 18.06933594 C54.15934618 21.26452233 59.64324698 24.41139093 65.125 27.5625 C76.80397512 34.28441464 88.41713249 41.1139835 100 48 C96.69461423 50.75746999 93.41057543 53.02895473 89.640625 55.1015625 C88.10450562 55.9522229 88.10450562 55.9522229 86.53735352 56.82006836 C85.45252686 57.4156958 84.3677002 58.01132324 83.25 58.625 C75.97686648 62.65707753 68.71235082 66.68990274 61.5625 70.9375 C53.29275417 75.84779048 44.96449382 80.65407755 36.62060547 85.43725586 C31.62094707 88.30843783 26.64009381 91.19568943 21.73046875 94.21875 C20.95251953 94.69376953 20.17457031 95.16878906 19.37304688 95.65820312 C17.96169903 96.52468746 16.55741809 97.40283925 15.16210938 98.29492188 C10.64341325 101.05713424 10.64341325 101.05713424 7.65478516 100.79174805 C4.53914007 99.86255575 2.04494596 98.52518994 -0.76953125 96.89453125 C-2.4548999 95.92471313 -2.4548999 95.92471313 -4.17431641 94.93530273 C-5.38714046 94.22786671 -6.59986584 93.52026149 -7.8125 92.8125 C-9.07437253 92.08283592 -10.33658429 91.35375823 -11.59912109 90.62524414 C-15.40487868 88.4261745 -19.20285646 86.21389905 -23 84 C-24.06943848 83.37770508 -25.13887695 82.75541016 -26.24072266 82.11425781 C-31.14690932 79.25897265 -36.04928448 76.39724929 -40.94921875 73.53125 C-47.59951612 69.64504086 -54.26660758 65.78819692 -60.9375 61.9375 C-62.5455249 61.00828735 -62.5455249 61.00828735 -64.18603516 60.06030273 C-65.20616699 59.47192627 -66.22629883 58.8835498 -67.27734375 58.27734375 C-68.16671631 57.76421631 -69.05608887 57.25108887 -69.97241211 56.72241211 C-73.96450904 54.45128528 -77.98507119 52.23051601 -82 50 C-82 81.35 -82 112.7 -82 145 C-82.66 145 -83.32 145 -84 145 C-84 112.99 -84 80.98 -84 48 C-76.41 43.71 -68.82 39.42 -61 35 C-57.05476644 32.7194911 -53.11495506 30.43518012 -49.1875 28.125 C-39.45171117 22.42123741 -29.68681531 16.76992374 -19.90307617 11.14892578 C-14.17894383 7.85506773 -8.49280388 4.51266742 -2.85888672 1.06640625 C-1 0 -1 0 0 0 Z " fill="#818181" transform="translate(105,9)"/>
<path d="M0 0 C0 31.68 0 63.36 0 96 C-4.62 93.36 -9.24 90.72 -14 88 C-17.28827604 86.1597277 -20.57764393 84.3236518 -23.875 82.5 C-26.55625 81.015 -29.2375 79.53 -32 78 C-32 64.8 -32 51.6 -32 38 C-37.14353615 39.92882606 -41.08371616 41.42330123 -45.64453125 44.109375 C-46.65193359 44.69976562 -47.65933594 45.29015625 -48.69726562 45.8984375 C-49.72529297 46.50945312 -50.75332031 47.12046875 -51.8125 47.75 C-52.82892578 48.34554687 -53.84535156 48.94109375 -54.89257812 49.5546875 C-56.93751027 50.75896876 -58.96562634 51.99226536 -60.97583008 53.25366211 C-64 55 -64 55 -67.1706543 56.15454102 C-70.84655535 57.70349439 -72.60668927 58.7701572 -75 62 C-77.00131044 69.90431786 -76.35279869 78.35642423 -76.1875 86.4375 C-76.18053859 88.71808917 -76.17853154 90.9986992 -76.18164062 93.27929688 C-76.17845887 98.85438436 -76.11321489 104.42611919 -76 110 C-70.39593327 107.866257 -65.08757478 105.70189269 -59.984375 102.51171875 C-58.96085937 101.88845703 -57.93734375 101.26519531 -56.8828125 100.62304688 C-54.77421695 99.32029239 -52.67011027 98.01024729 -50.5703125 96.69335938 C-49.55195313 96.07654297 -48.53359375 95.45972656 -47.484375 94.82421875 C-46.57397461 94.25791748 -45.66357422 93.69161621 -44.72558594 93.1081543 C-41.24666289 91.69371219 -39.58680004 91.94448703 -36 93 C-32.84033203 94.58227539 -32.84033203 94.58227539 -29.5078125 96.59765625 C-28.91700897 96.95137802 -28.32620544 97.30509979 -27.71749878 97.66954041 C-25.84783954 98.79169208 -23.98645002 99.92679388 -22.125 101.0625 C-20.85208775 101.82964826 -19.57865494 102.59593346 -18.3046875 103.36132812 C-15.19704115 105.23094068 -12.09666731 107.11224471 -9 109 C-11.9433916 112.1975539 -14.88779138 114.27698333 -18.671875 116.3984375 C-19.79883789 117.03539551 -20.92580078 117.67235352 -22.08691406 118.32861328 C-22.68346802 118.66185608 -23.28002197 118.99509888 -23.89465332 119.33843994 C-26.42538544 120.75232979 -28.94786229 122.1806602 -31.47088623 123.60824585 C-32.76512068 124.34042361 -34.05976059 125.07188511 -35.35479736 125.80264282 C-41.35191842 129.18878723 -47.30643721 132.64574431 -53.25 136.125 C-54.20696777 136.68380859 -55.16393555 137.24261719 -56.14990234 137.81835938 C-61.35934127 140.86223393 -66.56082394 143.91929411 -71.7578125 146.984375 C-73.41828613 147.96059814 -73.41828613 147.96059814 -75.11230469 148.95654297 C-77.24794238 150.21229282 -79.38149458 151.47159786 -81.51269531 152.73486328 C-82.9411377 153.57380127 -82.9411377 153.57380127 -84.3984375 154.4296875 C-85.24067871 154.92710449 -86.08291992 155.42452148 -86.95068359 155.93701172 C-89 157 -89 157 -91 157 C-91.30146367 143.44849006 -91.53232023 129.89777974 -91.67355824 116.34359741 C-91.74135475 110.04931057 -91.83326703 103.75732031 -91.98071289 97.46435547 C-92.12217264 91.38871804 -92.19973335 85.31528593 -92.23340416 79.23812866 C-92.25739056 76.92220325 -92.30423677 74.60639621 -92.37449074 72.29141235 C-92.8891742 54.62600602 -92.8891742 54.62600602 -89.75935555 50.27546883 C-86.30578537 47.12079279 -82.36098443 45.62160107 -78 44 C-75.96537859 42.85701937 -73.94737681 41.68329094 -71.95703125 40.46484375 C-69.90994449 39.28716522 -67.86173171 38.1114422 -65.8125 36.9375 C-64.11168147 35.9595355 -62.41086461 34.98156809 -60.71014404 34.00343323 C-58.96320818 32.99905965 -57.21579442 31.9955222 -55.46826172 30.9921875 C-49.93379025 27.81315841 -44.4041766 24.6257265 -38.875 21.4375 C-37.81579346 20.8276123 -36.75658691 20.21772461 -35.6652832 19.58935547 C-30.12989053 16.39843882 -24.60693967 13.18773396 -19.1015625 9.9453125 C-17.43891357 8.96800171 -17.43891357 8.96800171 -15.74267578 7.97094727 C-13.62162506 6.7226222 -11.50271524 5.47065051 -9.38623047 4.21459961 C-8.44408691 3.6603833 -7.50194336 3.10616699 -6.53125 2.53515625 C-5.70173828 2.044104 -4.87222656 1.55305176 -4.01757812 1.04711914 C-2 0 -2 0 0 0 Z " fill="#010101" transform="translate(205,58)"/>
</svg>
