<?xml version="1.0" encoding="UTF-8"?>
<svg version="1.1" xmlns="http://www.w3.org/2000/svg" width="297" height="170">
<path d="M0 0 C98.01 0 196.02 0 297 0 C297 56.1 297 112.2 297 170 C198.99 170 100.98 170 0 170 C0 113.9 0 57.8 0 0 Z " fill="#252527" transform="translate(0,0)"/>
<path d="M0 0 C6.75 0.75 6.75 0.75 9 3 C8.625 6.625 8.625 6.625 8 10 C6.68 10.33 5.36 10.66 4 11 C6.64 11.33 9.28 11.66 12 12 C12.268125 11.05125 12.53625 10.1025 12.8125 9.125 C14 6 14 6 17 4 C19.6875 3.875 19.6875 3.875 22 4 C22.33 3.01 22.66 2.02 23 1 C23.66 1 24.32 1 25 1 C25 1.66 25 2.32 25 3 C25.99 3.33 26.98 3.66 28 4 C28 6.64 28 9.28 28 12 C29.32 11.67 30.64 11.34 32 11 C31.01 10.67 30.02 10.34 29 10 C28.875 7.625 28.875 7.625 29 5 C32.02093215 1.97906785 35.56372072 2.53323166 39.625 2.375 C40.42679687 2.33632813 41.22859375 2.29765625 42.0546875 2.2578125 C44.03607556 2.16346069 46.01800645 2.08063785 48 2 C48 2.99 48 3.98 48 5 C47.34 5.33 46.68 5.66 46 6 C46 7.32 46 8.64 46 10 C45.2575 9.7525 44.515 9.505 43.75 9.25 C40.89015628 8.67443908 40.89015628 8.67443908 38.75 10.75 C36.82665619 12.96533124 36.82665619 12.96533124 36 16 C36.99 16.33 37.98 16.66 39 17 C38.505 18.485 38.505 18.485 38 20 C38.99 20 39.98 20 41 20 C41 20.66 41 21.32 41 22 C40.01 22 39.02 22 38 22 C38 22.99 38 23.98 38 25 C38.99 25.33 39.98 25.66 41 26 C39.35 26 37.7 26 36 26 C36 24.68 36 23.36 36 22 C35.34 22 34.68 22 34 22 C34 20.02 34 18.04 34 16 C32.68 15.67 31.36 15.34 30 15 C30 15.66 30 16.32 30 17 C30.99 17 31.98 17 33 17 C33.495 21.455 33.495 21.455 34 26 C32.35 26 30.7 26 29 26 C29.66 25.67 30.32 25.34 31 25 C31 24.01 31 23.02 31 22 C30.34 22 29.68 22 29 22 C29 21.34 29 20.68 29 20 C28.01 20 27.02 20 26 20 C26 22.31 26 24.62 26 27 C25.236875 26.835 24.47375 26.67 23.6875 26.5 C19.68560777 25.75546191 18.47924258 25.68050495 15 28 C12.3125 28.125 12.3125 28.125 10 28 C10 27.01 10 26.02 10 25 C7.69 25.33 5.38 25.66 3 26 C3.66 25.67 4.32 25.34 5 25 C5 24.34 5 23.68 5 23 C3.35 23.33 1.7 23.66 0 24 C-0.33 23.34 -0.66 22.68 -1 22 C-1 22.99 -1 23.98 -1 25 C-0.34 25.33 0.32 25.66 1 26 C-0.32 26 -1.64 26 -3 26 C-3.74400983 22.80075773 -4.08546898 20.42734492 -3.4375 17.1875 C-2 15 -2 15 1.125 14.1875 C2.548125 14.0946875 2.548125 14.0946875 4 14 C2.92984776 12.34150059 2.92984776 12.34150059 1 11 C-2.21198984 10.85508145 -2.21198984 10.85508145 -5.6875 11.3125 C-6.86699219 11.43238281 -8.04648438 11.55226563 -9.26171875 11.67578125 C-10.61716797 11.83626953 -10.61716797 11.83626953 -12 12 C-11.1470525 13.99786055 -11.1470525 13.99786055 -10 16 C-7.94999129 16.80528889 -7.94999129 16.80528889 -6 17 C-6.33 19.64 -6.66 22.28 -7 25 C-6.34 25 -5.68 25 -5 25 C-5 25.66 -5 26.32 -5 27 C-6.65 27 -8.3 27 -10 27 C-10 26.01 -10 25.02 -10 24 C-11.32 24.33 -12.64 24.66 -14 25 C-13.34 25.33 -12.68 25.66 -12 26 C-13.32 26 -14.64 26 -16 26 C-16 24.68 -16 23.36 -16 22 C-16.66 22.33 -17.32 22.66 -18 23 C-18.33 23.99 -18.66 24.98 -19 26 C-20.32 25.34 -21.64 24.68 -23 24 C-22.25 22.0625 -22.25 22.0625 -21 20 C-19.68 19.67 -18.36 19.34 -17 19 C-17 15.04 -17 11.08 -17 7 C-17.99 7 -18.98 7 -20 7 C-20 7.99 -20 8.98 -20 10 C-21.7074998 8.71937515 -23.37373596 7.38232443 -25 6 C-25 5.34 -25 4.68 -25 4 C-18.82816626 1.94272209 -14.31476412 0.9434415 -7.8125 1.4375 C-7.06291016 1.48970703 -6.31332031 1.54191406 -5.54101562 1.59570312 C-3.69362918 1.72513784 -1.84675629 1.86186518 0 2 C0 1.34 0 0.68 0 0 Z " fill="#2E2426" transform="translate(100,53)"/>
<path d="M0 0 C0 0.99 0 1.98 0 3 C-0.66 3 -1.32 3 -2 3 C-2 5.31 -2 7.62 -2 10 C-1.67 9.67 -1.34 9.34 -1 9 C-0.34 9 0.32 9 1 9 C1 6.69 1 4.38 1 2 C2.65 2 4.3 2 6 2 C5.01 2.33 4.02 2.66 3 3 C3 3.66 3 4.32 3 5 C3.99 5.33 4.98 5.66 6 6 C5.01 6 4.02 6 3 6 C3.34786708 7.97536745 3.34786708 7.97536745 4 10 C4.66 10.33 5.32 10.66 6 11 C6 12.65 6 14.3 6 16 C7.98 15.67 9.96 15.34 12 15 C12 16.32 12 17.64 12 19 C12.31151288 21.33634657 12.64159778 23.67038557 13 26 C12.34 26 11.68 26 11 26 C11 24.68 11 23.36 11 22 C10.34 22 9.68 22 9 22 C9 23.65 9 25.3 9 27 C8.34 27 7.68 27 7 27 C6.505 25.02 6.505 25.02 6 23 C3.69 23 1.38 23 -1 23 C-1 23.99 -1 24.98 -1 26 C-2.66611905 26.042721 -4.33382885 26.04063832 -6 26 C-6.33 25.67 -6.66 25.34 -7 25 C-7 25.33 -7 25.66 -7 26 C-11 26 -15 26 -19 26 C-19 24.35 -19 22.7 -19 21 C-17.02 20.34 -15.04 19.68 -13 19 C-15.31 19.33 -17.62 19.66 -20 20 C-20 22.64 -20 25.28 -20 28 C-21.65 28.33 -23.3 28.66 -25 29 C-25.66 26.36 -26.32 23.72 -27 21 C-27.66 21 -28.32 21 -29 21 C-29.33 21.99 -29.66 22.98 -30 24 C-30.99 24.33 -31.98 24.66 -33 25 C-33 25.66 -33 26.32 -33 27 C-34.65 26.67 -36.3 26.34 -38 26 C-38.73080266 24.02253397 -39.39421747 22.01927511 -40 20 C-39.67 19.34 -39.34 18.68 -39 18 C-39.66 18 -40.32 18 -41 18 C-40.67 20.64 -40.34 23.28 -40 26 C-41.65 26 -43.3 26 -45 26 C-44.34 25.67 -43.68 25.34 -43 25 C-43 23.02 -43 21.04 -43 19 C-43.66 18.67 -44.32 18.34 -45 18 C-44.01 18 -43.02 18 -42 18 C-42.33 17.01 -42.66 16.02 -43 15 C-40.82575883 12.49962266 -39.26954202 11.56371414 -36 11 C-36.99 10.34 -37.98 9.68 -39 9 C-38.67 7.35 -38.34 5.7 -38 4 C-36.35 4 -34.7 4 -33 4 C-33 5.32 -33 6.64 -33 8 C-32.34 8.33 -31.68 8.66 -31 9 C-31.33 7.02 -31.66 5.04 -32 3 C-28.25 1.875 -28.25 1.875 -26 3 C-26.33 4.32 -26.66 5.64 -27 7 C-24.69 7 -22.38 7 -20 7 C-20 7.66 -20 8.32 -20 9 C-21.32 9 -22.64 9 -24 9 C-24 9.66 -24 10.32 -24 11 C-22.02 11 -20.04 11 -18 11 C-16.7619986 7.42355152 -17.25073929 4.66305234 -18 1 C-15.69 1.33 -13.38 1.66 -11 2 C-11 3.98 -11 5.96 -11 8 C-10.01 8 -9.02 8 -8 8 C-8.66 5.36 -9.32 2.72 -10 0 C-6.30458414 -0.95024979 -3.69541586 -0.95024979 0 0 Z " fill="#2C2C2D" transform="translate(187,53)"/>
<path d="M0 0 C1.000811 0.00007553 2.00162201 0.00015106 3.03276062 0.00022888 C4.11096573 0.00539017 5.18917084 0.01055145 6.30004883 0.01586914 C7.40560623 0.01728409 8.51116364 0.01869904 9.65022278 0.02015686 C13.18586925 0.02576025 16.7214527 0.03831335 20.25708008 0.05102539 C22.65226146 0.05603995 25.04744383 0.06060294 27.44262695 0.06469727 C33.31829955 0.07573078 39.19393531 0.09247223 45.06958008 0.11352539 C44.73958008 1.76352539 44.40958008 3.41352539 44.06958008 5.11352539 C45.05958008 5.44352539 46.04958008 5.77352539 47.06958008 6.11352539 C44.75958008 6.11352539 42.44958008 6.11352539 40.06958008 6.11352539 C40.06958008 7.76352539 40.06958008 9.41352539 40.06958008 11.11352539 C39.82208008 10.15446289 39.82208008 10.15446289 39.56958008 9.17602539 C38.28779408 6.95233298 38.28779408 6.95233298 36.15551758 6.62524414 C34.13382853 6.38592759 32.10116069 6.24459511 30.06958008 6.11352539 C29.73958008 7.10352539 29.40958008 8.09352539 29.06958008 9.11352539 C28.57458008 7.62852539 28.57458008 7.62852539 28.06958008 6.11352539 C23.44958008 6.11352539 18.82958008 6.11352539 14.06958008 6.11352539 C14.06958008 6.77352539 14.06958008 7.43352539 14.06958008 8.11352539 C13.40958008 8.11352539 12.74958008 8.11352539 12.06958008 8.11352539 C12.06958008 7.45352539 12.06958008 6.79352539 12.06958008 6.11352539 C11.01770508 6.29915039 9.96583008 6.48477539 8.88208008 6.67602539 C5.49838126 7.0643187 3.3053212 6.99600024 0.06958008 6.11352539 C0.06958008 8.75352539 0.06958008 11.39352539 0.06958008 14.11352539 C2.37958008 13.45352539 4.68958008 12.79352539 7.06958008 12.11352539 C7.06958008 12.77352539 7.06958008 13.43352539 7.06958008 14.11352539 C9.37958008 13.45352539 11.68958008 12.79352539 14.06958008 12.11352539 C14.06958008 14.42352539 14.06958008 16.73352539 14.06958008 19.11352539 C14.72958008 19.11352539 15.38958008 19.11352539 16.06958008 19.11352539 C16.06958008 19.77352539 16.06958008 20.43352539 16.06958008 21.11352539 C15.07958008 21.11352539 14.08958008 21.11352539 13.06958008 21.11352539 C13.06958008 21.77352539 13.06958008 22.43352539 13.06958008 23.11352539 C10.6641237 24.31625358 9.11961055 24.21424011 6.44458008 24.17602539 C5.21868164 24.16249023 5.21868164 24.16249023 3.96801758 24.14868164 C3.3415332 24.13708008 2.71504883 24.12547852 2.06958008 24.11352539 C2.06958008 25.43352539 2.06958008 26.75352539 2.06958008 28.11352539 C2.06958008 28.77352539 2.06958008 29.43352539 2.06958008 30.11352539 C1.07958008 30.44352539 0.08958008 30.77352539 -0.93041992 31.11352539 C-1.93041992 24.48852539 -1.93041992 24.48852539 -1.93041992 21.11352539 C-1.27041992 20.45352539 -0.61041992 19.79352539 0.06958008 19.11352539 C1.05958008 19.44352539 2.04958008 19.77352539 3.06958008 20.11352539 C3.06958008 19.45352539 3.06958008 18.79352539 3.06958008 18.11352539 C2.07958008 18.11352539 1.08958008 18.11352539 0.06958008 18.11352539 C-2.59632929 13.55926355 -3.24605174 10.37405576 -2.93041992 5.11352539 C-3.92041992 4.78352539 -4.91041992 4.45352539 -5.93041992 4.11352539 C-5.60041992 3.78352539 -5.27041992 3.45352539 -4.93041992 3.11352539 C-5.92041992 2.45352539 -6.91041992 1.79352539 -7.93041992 1.11352539 C-4.97643234 0.12886286 -3.0779297 -0.00775297 0 0 Z " fill="#242123" transform="translate(62.930419921875,-0.113525390625)"/>
<path d="M0 0 C2 3 2 3 2 6 C3.65 6 5.3 6 7 6 C7.66 4.68 8.32 3.36 9 2 C9.99 2.66 10.98 3.32 12 4 C12.99 4 13.98 4 15 4 C15 4.66 15 5.32 15 6 C15.99 5.34 16.98 4.68 18 4 C18 3.01 18 2.02 18 1 C19.32 0.67 20.64 0.34 22 0 C22.98120464 3.05263664 22.98120464 4.94736336 22 8 C22.66 8 23.32 8 24 8 C24 8.99 24 9.98 24 11 C24.99 11.33 25.98 11.66 27 12 C27.66 11.67 28.32 11.34 29 11 C30.67654729 11.27942455 32.34608154 11.60828247 34 12 C33.0409375 13.3921875 33.0409375 13.3921875 32.0625 14.8125 C29.91377907 17.84219943 29.91377907 17.84219943 29 21 C27.02 21 25.04 21 23 21 C23 20.34 23 19.68 23 19 C22.67 19 22.34 19 22 19 C22.66 20.65 23.32 22.3 24 24 C22.68 24 21.36 24 20 24 C20 23.34 20 22.68 20 22 C18.68 21.67 17.36 21.34 16 21 C17.32 21 18.64 21 20 21 C19.34 20.01 18.68 19.02 18 18 C17.01 18 16.02 18 15 18 C14.34 19.98 13.68 21.96 13 24 C12.01 24 11.02 24 10 24 C10 22.35 10 20.7 10 19 C10.66 18.67 11.32 18.34 12 18 C10.68 17.67 9.36 17.34 8 17 C8 19.31 8 21.62 8 24 C7.34 24 6.68 24 6 24 C6 23.34 6 22.68 6 22 C5.01 21.67 4.02 21.34 3 21 C3.99 21 4.98 21 6 21 C5.67 20.01 5.34 19.02 5 18 C4.01 18 3.02 18 2 18 C1.67 19.65 1.34 21.3 1 23 C0.67 23 0.34 23 0 23 C-0.185625 21.824375 -0.185625 21.824375 -0.375 20.625 C-0.79117993 17.85942178 -0.79117993 17.85942178 -3 16 C-2.34 15.67 -1.68 15.34 -1 15 C-1.309375 13.9171875 -1.309375 13.9171875 -1.625 12.8125 C-2.05952211 9.55358415 -1.41680669 7.91695496 0 5 C-0.66 4.67 -1.32 4.34 -2 4 C-1.34 2.68 -0.68 1.36 0 0 Z " fill="#212528" transform="translate(200,56)"/>
<path d="M0 0 C0 0.66 0 1.32 0 2 C1.32 2.66 2.64 3.32 4 4 C-1.75 5.125 -1.75 5.125 -4 4 C-4.33 7.63 -4.66 11.26 -5 15 C-4.34 14.67 -3.68 14.34 -3 14 C-3 13.01 -3 12.02 -3 11 C-0.03 11.495 -0.03 11.495 3 12 C3 12.66 3 13.32 3 14 C2.34 14 1.68 14 1 14 C1 17.96 1 21.92 1 26 C0.67 24.68 0.34 23.36 0 22 C-0.66 22 -1.32 22 -2 22 C-2 22.99 -2 23.98 -2 25 C-2.99 25 -3.98 25 -5 25 C-5.33 26.98 -5.66 28.96 -6 31 C-6.33 31 -6.66 31 -7 31 C-7.495 28.525 -7.495 28.525 -8 26 C-11.63 26 -15.26 26 -19 26 C-19 27.98 -19 29.96 -19 32 C-19.33 32 -19.66 32 -20 32 C-20.33 30.02 -20.66 28.04 -21 26 C-21.99 25.67 -22.98 25.34 -24 25 C-24 24.34 -24 23.68 -24 23 C-24.66 23 -25.32 23 -26 23 C-26 25.31 -26 27.62 -26 30 C-26.99 30 -27.98 30 -29 30 C-28.39254603 25.14036821 -26.27241033 21.2594482 -24 17 C-24.66 17 -25.32 17 -26 17 C-25.67 16.34 -25.34 15.68 -25 15 C-24.01 15.33 -23.02 15.66 -22 16 C-21.34 14.35 -20.68 12.7 -20 11 C-19.34 11 -18.68 11 -18 11 C-18 12.32 -18 13.64 -18 15 C-17.34 14.67 -16.68 14.34 -16 14 C-15.67 13.01 -15.34 12.02 -15 11 C-15 11.66 -15 12.32 -15 13 C-13.68 12.67 -12.36 12.34 -11 12 C-11.33 13.32 -11.66 14.64 -12 16 C-10.35 16 -8.7 16 -7 16 C-7 15.34 -7 14.68 -7 14 C-7.66 14 -8.32 14 -9 14 C-8.67 11.36 -8.34 8.72 -8 6 C-8.61875 6.185625 -9.2375 6.37125 -9.875 6.5625 C-12 7 -12 7 -14 6 C-14 4.35 -14 2.7 -14 1 C-12.41913952 0.63495397 -10.83516093 0.28339494 -9.25 -0.0625 C-7.92742187 -0.35833984 -7.92742187 -0.35833984 -6.578125 -0.66015625 C-4.01320972 -0.99825872 -2.42908361 -0.81158635 0 0 Z M-23 17 C-22 19 -22 19 -22 19 Z " fill="#292122" transform="translate(102,64)"/>
<path d="M0 0 C6.75 0.75 6.75 0.75 9 3 C8.625 6.625 8.625 6.625 8 10 C3.125 9.125 3.125 9.125 2 8 C1.67 8.66 1.34 9.32 1 10 C-1.94140625 10.6328125 -1.94140625 10.6328125 -5.5625 11.125 C-6.76003906 11.29257813 -7.95757812 11.46015625 -9.19140625 11.6328125 C-10.11824219 11.75398438 -11.04507813 11.87515625 -12 12 C-11.1470525 13.99786055 -11.1470525 13.99786055 -10 16 C-7.94999129 16.80528889 -7.94999129 16.80528889 -6 17 C-6.33 19.64 -6.66 22.28 -7 25 C-6.34 25 -5.68 25 -5 25 C-5 25.66 -5 26.32 -5 27 C-6.65 27 -8.3 27 -10 27 C-10 26.01 -10 25.02 -10 24 C-11.32 24.33 -12.64 24.66 -14 25 C-13.34 25.33 -12.68 25.66 -12 26 C-13.32 26 -14.64 26 -16 26 C-16 24.68 -16 23.36 -16 22 C-16.66 22.33 -17.32 22.66 -18 23 C-18.33 23.99 -18.66 24.98 -19 26 C-20.32 25.34 -21.64 24.68 -23 24 C-22.25 22.0625 -22.25 22.0625 -21 20 C-19.68 19.67 -18.36 19.34 -17 19 C-17 15.04 -17 11.08 -17 7 C-17.99 7 -18.98 7 -20 7 C-20 7.99 -20 8.98 -20 10 C-21.7074998 8.71937515 -23.37373596 7.38232443 -25 6 C-25 5.34 -25 4.68 -25 4 C-18.82816626 1.94272209 -14.31476412 0.9434415 -7.8125 1.4375 C-7.06291016 1.48970703 -6.31332031 1.54191406 -5.54101562 1.59570312 C-3.69362918 1.72513784 -1.84675629 1.86186518 0 2 C0 1.34 0 0.68 0 0 Z " fill="#482124" transform="translate(100,53)"/>
<path d="M0 0 C8.58 0 17.16 0 26 0 C27 5 27 5 26 7 C26.66 7 27.32 7 28 7 C28.33 6.34 28.66 5.68 29 5 C29.66 5 30.32 5 31 5 C31 5.66 31 6.32 31 7 C32.1446875 6.87625 32.1446875 6.87625 33.3125 6.75 C36 7 36 7 37.8125 9 C38.4003125 9.99 38.4003125 9.99 39 11 C37.68 11.99 36.36 12.98 35 14 C35.33 12.68 35.66 11.36 36 10 C35.34 10 34.68 10 34 10 C33.4121875 11.2375 33.4121875 11.2375 32.8125 12.5 C32.214375 13.325 31.61625 14.15 31 15 C27.4375 15.5 27.4375 15.5 24 15 C23.34 14.01 22.68 13.02 22 12 C21.34 12.66 20.68 13.32 20 14 C20 12.35 20 10.7 20 9 C19.01 9 18.02 9 17 9 C17 9.99 17 10.98 17 12 C17.66 12 18.32 12 19 12 C19 12.66 19 13.32 19 14 C17.68 13.67 16.36 13.34 15 13 C14.67 11.68 14.34 10.36 14 9 C13.67 10.65 13.34 12.3 13 14 C12.34 14 11.68 14 11 14 C11.33 12.35 11.66 10.7 12 9 C11.34 9 10.68 9 10 9 C9.67 10.65 9.34 12.3 9 14 C8.34 14 7.68 14 7 14 C7.33 11.36 7.66 8.72 8 6 C7.01 6.33 6.02 6.66 5 7 C4.34 6.67 3.68 6.34 3 6 C2.67 6.66 2.34 7.32 2 8 C-0.97 7.505 -0.97 7.505 -4 7 C-4 7.66 -4 8.32 -4 9 C-3.01 9.33 -2.02 9.66 -1 10 C-1.99 10 -2.98 10 -4 10 C-4 10.66 -4 11.32 -4 12 C-2.68 12 -1.36 12 0 12 C0 12.66 0 13.32 0 14 C-1.65 14 -3.3 14 -5 14 C-5 11.36 -5 8.72 -5 6 C-3.68 5.67 -2.36 5.34 -1 5 C-0.67 3.35 -0.34 1.7 0 0 Z " fill="#2C2826" transform="translate(108,0)"/>
<path d="M0 0 C0.66 0 1.32 0 2 0 C2 0.66 2 1.32 2 2 C2.99 2.33 3.98 2.66 5 3 C5 5.64 5 8.28 5 11 C6.32 10.67 7.64 10.34 9 10 C8.01 9.67 7.02 9.34 6 9 C5.875 6.625 5.875 6.625 6 4 C9.02093215 0.97906785 12.56372072 1.53323166 16.625 1.375 C17.42679688 1.33632813 18.22859375 1.29765625 19.0546875 1.2578125 C21.03607556 1.16346069 23.01800645 1.08063785 25 1 C25 1.99 25 2.98 25 4 C24.01 4.495 24.01 4.495 23 5 C23 6.32 23 7.64 23 9 C22.2575 8.7525 21.515 8.505 20.75 8.25 C17.89015628 7.67443908 17.89015628 7.67443908 15.75 9.75 C13.82665619 11.96533124 13.82665619 11.96533124 13 15 C13.99 15.33 14.98 15.66 16 16 C15.67 16.99 15.34 17.98 15 19 C15.99 19 16.98 19 18 19 C18 19.66 18 20.32 18 21 C17.01 21 16.02 21 15 21 C15 21.99 15 22.98 15 24 C15.99 24.33 16.98 24.66 18 25 C16.35 25 14.7 25 13 25 C13 23.68 13 22.36 13 21 C12.34 21 11.68 21 11 21 C11 19.02 11 17.04 11 15 C9.68 14.67 8.36 14.34 7 14 C7 14.66 7 15.32 7 16 C7.99 16 8.98 16 10 16 C10.33 18.97 10.66 21.94 11 25 C9.35 25 7.7 25 6 25 C6.66 24.67 7.32 24.34 8 24 C8 23.01 8 22.02 8 21 C7.34 21 6.68 21 6 21 C6 20.34 6 19.68 6 19 C5.01 19 4.02 19 3 19 C3 20.98 3 22.96 3 25 C2.34 25 1.68 25 1 25 C1 23.02 1 21.04 1 19 C0.34 19 -0.32 19 -1 19 C-1 18.01 -1 17.02 -1 16 C-1.66 15.34 -2.32 14.68 -3 14 C-3 13.01 -3 12.02 -3 11 C-1.02 10.67 0.96 10.34 3 10 C2.67 8.35 2.34 6.7 2 5 C1.34 6.32 0.68 7.64 0 9 C-2.62113708 9 -4.50935112 8.68707555 -7 8 C-6.67 6.35 -6.34 4.7 -6 3 C-4.35 3 -2.7 3 -1 3 C-0.67 2.01 -0.34 1.02 0 0 Z " fill="#222224" transform="translate(123,54)"/>
<path d="M0 0 C1.4783226 2.95664519 1.06032783 5.74229737 1 9 C0.01 9.33 -0.98 9.66 -2 10 C-0.14375 10.185625 -0.14375 10.185625 1.75 10.375 C4.8762197 10.75746305 7.28879237 11.30549523 10 13 C8.35 13.66 6.7 14.32 5 15 C5 14.34 5 13.68 5 13 C2.36 13 -0.28 13 -3 13 C-2.01 13.66 -1.02 14.32 0 15 C0.33 15.33 0.66 15.66 1 16 C1.66 16.33 2.32 16.66 3 17 C3 17.66 3 18.32 3 19 C5.47266765 18.65555119 5.47266765 18.65555119 8 18 C8.33 17.34 8.66 16.68 9 16 C10.32 16 11.64 16 13 16 C13.33 18.97 13.66 21.94 14 25 C6.15038242 28.32033716 0.93721678 27.94250432 -7 25 C-7 23.68 -7 22.36 -7 21 C-7.66 21 -8.32 21 -9 21 C-9 22.32 -9 23.64 -9 25 C-9.66 25 -10.32 25 -11 25 C-11 22.36 -11 19.72 -11 17 C-10.34 17 -9.68 17 -9 17 C-9 15.02 -9 13.04 -9 11 C-8.34 10.67 -7.68 10.34 -7 10 C-7.7425 9.3503125 -7.7425 9.3503125 -8.5 8.6875 C-10 7 -10 7 -10 4 C-8.68 3.34 -7.36 2.68 -6 2 C-5.34 2.66 -4.68 3.32 -4 4 C-2.68 2.68 -1.36 1.36 0 0 Z " fill="#2B2729" transform="translate(74,136)"/>
<path d="M0 0 C3.96 0 7.92 0 12 0 C12 0.66 12 1.32 12 2 C12.66 2 13.32 2 14 2 C14 1.34 14 0.68 14 0 C18.62 0 23.24 0 28 0 C28.33 0.66 28.66 1.32 29 2 C29.33 1.34 29.66 0.68 30 0 C32.64 0 35.28 0 38 0 C37.67 1.65 37.34 3.3 37 5 C36.34 5 35.68 5 35 5 C35 5.99 35 6.98 35 8 C34.34 8 33.68 8 33 8 C32.505 5.03 32.505 5.03 32 2 C31.814375 2.763125 31.62875 3.52625 31.4375 4.3125 C29.43054115 8.06464046 26.87567937 8.52019515 23 10 C22.67 10.66 22.34 11.32 22 12 C21.38125 11.814375 20.7625 11.62875 20.125 11.4375 C17.95839822 10.76313824 17.95839822 10.76313824 16 12 C15.34 10.35 14.68 8.7 14 7 C11.69 7.33 9.38 7.66 7 8 C7 7.34 7 6.68 7 6 C6.01 6.66 5.02 7.32 4 8 C2.68 8 1.36 8 0 8 C0 5.36 0 2.72 0 0 Z " fill="#3A2226" transform="translate(63,6)"/>
<path d="M0 0 C0.66 0.66 1.32 1.32 2 2 C4.10898869 2.24295974 4.10898869 2.24295974 6.4375 2.125 C7.21996094 2.10695313 8.00242187 2.08890625 8.80859375 2.0703125 C9.53175781 2.04710938 10.25492188 2.02390625 11 2 C13 2 15 2 17 2 C17 1.34 17 0.68 17 0 C21.48525648 0.656379 25.66914029 1.70074209 30 3 C30 4.32 30 5.64 30 7 C29.01 7.33 28.02 7.66 27 8 C26.67 6.68 26.34 5.36 26 4 C25.34 4 24.68 4 24 4 C23.731875 4.969375 23.46375 5.93875 23.1875 6.9375 C22.795625 7.948125 22.40375 8.95875 22 10 C21.01 10.33 20.02 10.66 19 11 C19 10.34 19 9.68 19 9 C12.73 9 6.46 9 0 9 C0 6.03 0 3.06 0 0 Z " fill="#6B3E41" transform="translate(70,104)"/>
<path d="M0 0 C8.25 0 16.5 0 25 0 C25 3.3 25 6.6 25 10 C21.14216906 10.089717 17.76817199 9.7536344 14 9 C12.00039988 8.960008 9.99952758 8.95653201 8 9 C6.66666667 9 5.33333333 9 4 9 C4 7.35 4 5.7 4 4 C1.5 5 1.5 5 0 9 C0 6.03 0 3.06 0 0 Z " fill="#401C1D" transform="translate(70,38)"/>
<path d="M0 0 C0.13277344 0.60328125 0.26554687 1.2065625 0.40234375 1.828125 C0.57894531 2.62734375 0.75554688 3.4265625 0.9375 4.25 C1.11152344 5.03890625 1.28554688 5.8278125 1.46484375 6.640625 C1.947556 8.76878703 2.46163178 10.88532842 3 13 C3.99 13 4.98 13 6 13 C6 13.66 6 14.32 6 15 C4.35 15.66 2.7 16.32 1 17 C1.33 17.66 1.66 18.32 2 19 C2.039992 20.99960012 2.04346799 23.00047242 2 25 C1.67 25 1.34 25 1 25 C1 23.35 1 21.7 1 20 C0.01 20 -0.98 20 -2 20 C-2 21.65 -2 23.3 -2 25 C-2.33 25 -2.66 25 -3 25 C-3.33 23.35 -3.66 21.7 -4 20 C-4.66 20 -5.32 20 -6 20 C-5.67 21.65 -5.34 23.3 -5 25 C-6.32 24.34 -7.64 23.68 -9 23 C-9 22.01 -9 21.02 -9 20 C-8.34 20 -7.68 20 -7 20 C-7.33 19.01 -7.66 18.02 -8 17 C-8 13 -8 13 -7 11 C-6.34 11 -5.68 11 -5 11 C-4.896875 11.639375 -4.79375 12.27875 -4.6875 12.9375 C-4.460625 13.618125 -4.23375 14.29875 -4 15 C-3.01 15.33 -2.02 15.66 -1 16 C-1 15.34 -1 14.68 -1 14 C-0.34 14 0.32 14 1 14 C0.89386164 11.54775306 0.89386164 11.54775306 0 9 C-2.47636012 7.62533375 -2.47636012 7.62533375 -5 7 C-5 7.66 -5 8.32 -5 9 C-8.16115776 7.63016497 -8.9927092 7.0109362 -11 4 C-8.97717134 -2.06848598 -5.42392029 -1.02338119 0 0 Z " fill="#594446" transform="translate(60,5)"/>
<path d="M0 0 C1.32 0 2.64 0 4 0 C4.33 2.97 4.66 5.94 5 9 C-2.84961758 12.32033716 -8.06278322 11.94250432 -16 9 C-16 7.68 -16 6.36 -16 5 C-16.66 5 -17.32 5 -18 5 C-18 6.32 -18 7.64 -18 9 C-18.66 9 -19.32 9 -20 9 C-20 6.36 -20 3.72 -20 1 C-19.34 1 -18.68 1 -18 1 C-18 1.66 -18 2.32 -18 3 C-16.3603125 2.690625 -16.3603125 2.690625 -14.6875 2.375 C-11 2 -11 2 -8 4 C-8.99 4 -9.98 4 -11 4 C-10.67 4.99 -10.34 5.98 -10 7 C-9.34 7.33 -8.68 7.66 -8 8 C-7.67 6.35 -7.34 4.7 -7 3 C-6.030625 2.87625 -5.06125 2.7525 -4.0625 2.625 C-3.051875 2.41875 -2.04125 2.2125 -1 2 C-0.67 1.34 -0.34 0.68 0 0 Z " fill="#35181C" transform="translate(83,152)"/>
<path d="M0 0 C0.71027344 0.09796875 1.42054687 0.1959375 2.15234375 0.296875 C2.86519531 0.38453125 3.57804687 0.4721875 4.3125 0.5625 C4.89902344 0.72234375 5.48554687 0.8821875 6.08984375 1.046875 C6.41984375 1.706875 6.74984375 2.366875 7.08984375 3.046875 C5.43984375 3.376875 3.78984375 3.706875 2.08984375 4.046875 C2.08984375 5.366875 2.08984375 6.686875 2.08984375 8.046875 C3.40984375 8.376875 4.72984375 8.706875 6.08984375 9.046875 C6.08984375 8.386875 6.08984375 7.726875 6.08984375 7.046875 C6.74984375 7.046875 7.40984375 7.046875 8.08984375 7.046875 C8.08984375 7.706875 8.08984375 8.366875 8.08984375 9.046875 C9.73984375 9.046875 11.38984375 9.046875 13.08984375 9.046875 C13.08984375 6.736875 13.08984375 4.426875 13.08984375 2.046875 C14.73984375 2.046875 16.38984375 2.046875 18.08984375 2.046875 C18.08984375 3.036875 18.08984375 4.026875 18.08984375 5.046875 C17.09984375 5.046875 16.10984375 5.046875 15.08984375 5.046875 C14.75984375 7.356875 14.42984375 9.666875 14.08984375 12.046875 C16.36506241 9.88000009 18.24778537 7.59066991 20.08984375 5.046875 C20.41984375 6.366875 20.74984375 7.686875 21.08984375 9.046875 C22.40984375 8.716875 23.72984375 8.386875 25.08984375 8.046875 C24.08984375 11.046875 24.08984375 11.046875 23.08984375 12.046875 C23.08984375 12.706875 23.08984375 13.366875 23.08984375 14.046875 C21.10984375 15.036875 21.10984375 15.036875 19.08984375 16.046875 C19.08984375 15.386875 19.08984375 14.726875 19.08984375 14.046875 C18.30609375 14.0675 17.52234375 14.088125 16.71484375 14.109375 C14.08984375 14.046875 14.08984375 14.046875 12.08984375 13.046875 C11.42984375 13.706875 10.76984375 14.366875 10.08984375 15.046875 C10.08984375 14.056875 10.08984375 13.066875 10.08984375 12.046875 C9.25839844 12.05847656 8.42695312 12.07007813 7.5703125 12.08203125 C6.48363281 12.09105469 5.39695312 12.10007813 4.27734375 12.109375 C3.19839844 12.12097656 2.11945313 12.13257813 1.0078125 12.14453125 C-1.91015625 12.046875 -1.91015625 12.046875 -4.91015625 11.046875 C-4.91015625 10.386875 -4.91015625 9.726875 -4.91015625 9.046875 C-3.59015625 8.716875 -2.27015625 8.386875 -0.91015625 8.046875 C-0.58015625 6.396875 -0.25015625 4.746875 0.08984375 3.046875 C-1.23015625 2.716875 -2.55015625 2.386875 -3.91015625 2.046875 C-1.91015625 0.046875 -1.91015625 0.046875 0 0 Z " fill="#2C1C1E" transform="translate(81.91015625,135.953125)"/>
<path d="M0 0 C0.33 0 0.66 0 1 0 C1 1.65 1 3.3 1 5 C2.32 5 3.64 5 5 5 C5.33 4.34 5.66 3.68 6 3 C6 4.32 6 5.64 6 7 C5.34 7 4.68 7 4 7 C4.71563266 9.0162233 4.71563266 9.0162233 6 11 C8.05000871 11.80528889 8.05000871 11.80528889 10 12 C9.67 14.64 9.34 17.28 9 20 C9.66 20 10.32 20 11 20 C11 20.66 11 21.32 11 22 C9.35 22 7.7 22 6 22 C6 21.01 6 20.02 6 19 C4.68 19.33 3.36 19.66 2 20 C2.66 20.33 3.32 20.66 4 21 C2.68 21 1.36 21 0 21 C0 19.68 0 18.36 0 17 C-0.66 17.33 -1.32 17.66 -2 18 C-2.33 18.99 -2.66 19.98 -3 21 C-4.32 20.34 -5.64 19.68 -7 19 C-6.25 17.0625 -6.25 17.0625 -5 15 C-2.921875 14.37109375 -2.921875 14.37109375 -1 14 C-1.01160156 13.40832031 -1.02320312 12.81664063 -1.03515625 12.20703125 C-1.08322386 7.99768215 -1.06006883 4.1077667 0 0 Z " fill="#391C23" transform="translate(84,58)"/>
<path d="M0 0 C3.85645121 -0.22036864 6.49223216 0.39644899 10 2 C10 2.66 10 3.32 10 4 C10.66 3.67 11.32 3.34 12 3 C12 2.01 12 1.02 12 0 C12.99 0 13.98 0 15 0 C15 2.31 15 4.62 15 7 C15.66 7 16.32 7 17 7 C17 7.66 17 8.32 17 9 C13.7 9 10.4 9 7 9 C6.67 7.35 6.34 5.7 6 4 C5.67 4.66 5.34 5.32 5 6 C4.67 6.33 4.34 6.66 4 7 C4 7.66 4 8.32 4 9 C0.37 8.67 -3.26 8.34 -7 8 C-7 6.68 -7 5.36 -7 4 C-7.66 4 -8.32 4 -9 4 C-9 3.34 -9 2.68 -9 2 C-5.71023192 0.90341064 -4.28696233 1.20046862 -1 2 C-0.67 1.34 -0.34 0.68 0 0 Z " fill="#72494F" transform="translate(242,71)"/>
<path d="M0 0 C2 2 2 2 2 5 C3.2375 5.144375 4.475 5.28875 5.75 5.4375 C13.95071669 6.49332419 13.95071669 6.49332419 17 10 C16.34 11.32 15.68 12.64 15 14 C14.34 14 13.68 14 13 14 C13 13.34 13 12.68 13 12 C11.68 12.99 10.36 13.98 9 15 C8.67 13.68 8.34 12.36 8 11 C7.01 12.485 7.01 12.485 6 14 C2.875 14.6875 2.875 14.6875 0 15 C-0.144375 14.2575 -0.28875 13.515 -0.4375 12.75 C-0.91221978 10.10519665 -0.91221978 10.10519665 -1.6875 8.0625 C-2.14524942 5.04135382 -1.08272488 2.80234675 0 0 Z " fill="#262F22" transform="translate(202,48)"/>
<path d="M0 0 C0.33 0 0.66 0 1 0 C1.125 7.75 1.125 7.75 0 10 C-5.28 10 -10.56 10 -16 10 C-16.33 7.69 -16.66 5.38 -17 3 C-12.70513628 2.24208287 -9.22307326 1.75791963 -5 3 C-4.67 3.33 -4.34 3.66 -4 4 C-3.67 3.34 -3.34 2.68 -3 2 C-2.01 2 -1.02 2 0 2 C0 1.34 0 0.68 0 0 Z " fill="#351D1D" transform="translate(100,87)"/>
<path d="M0 0 C0.79075928 0.00523682 1.58151855 0.01047363 2.39624023 0.01586914 C3.67724609 0.02070312 3.67724609 0.02070312 4.98413086 0.02563477 C5.88196289 0.03401367 6.77979492 0.04239258 7.70483398 0.05102539 C8.6065332 0.05553711 9.50823242 0.06004883 10.43725586 0.06469727 C12.67234712 0.07652315 14.90730835 0.09300319 17.14233398 0.11352539 C16.81233398 1.76352539 16.48233398 3.41352539 16.14233398 5.11352539 C17.13233398 5.44352539 18.12233398 5.77352539 19.14233398 6.11352539 C17.16233398 5.78352539 15.18233398 5.45352539 13.14233398 5.11352539 C13.14233398 4.45352539 13.14233398 3.79352539 13.14233398 3.11352539 C12.81233398 3.77352539 12.48233398 4.43352539 12.14233398 5.11352539 C0.92233398 5.11352539 -10.29766602 5.11352539 -21.85766602 5.11352539 C-22.18766602 4.45352539 -22.51766602 3.79352539 -22.85766602 3.11352539 C-19.85766602 2.11352539 -19.85766602 2.11352539 -16.85766602 3.11352539 C-16.85766602 2.45352539 -16.85766602 1.79352539 -16.85766602 1.11352539 C-15.53766602 1.11352539 -14.21766602 1.11352539 -12.85766602 1.11352539 C-12.85766602 1.77352539 -12.85766602 2.43352539 -12.85766602 3.11352539 C-11.92954102 2.92790039 -11.00141602 2.74227539 -10.04516602 2.55102539 C-6.85766602 2.11352539 -6.85766602 2.11352539 -3.85766602 3.11352539 C-3.52766602 2.45352539 -3.19766602 1.79352539 -2.85766602 1.11352539 C-1.85766602 0.11352539 -1.85766602 0.11352539 0 0 Z " fill="#252626" transform="translate(90.857666015625,-0.113525390625)"/>
<path d="M0 0 C4.75 0.75 4.75 0.75 7 3 C7.33 2.01 7.66 1.02 8 0 C8.66 0 9.32 0 10 0 C9.34 2.31 8.68 4.62 8 7 C8.99 7 9.98 7 11 7 C11 4.69 11 2.38 11 0 C11.66 0 12.32 0 13 0 C13 0.66 13 1.32 13 2 C14.32 2.33 15.64 2.66 17 3 C17 4.65 17 6.3 17 8 C16.34 8 15.68 8 15 8 C15 6.68 15 5.36 15 4 C14.34 4 13.68 4 13 4 C13 5.65 13 7.3 13 9 C11.6078125 8.9690625 11.6078125 8.9690625 10.1875 8.9375 C6.97713989 8.84230396 6.97713989 8.84230396 4 10 C4 11.32 4 12.64 4 14 C3.01 14 2.02 14 1 14 C1.04125 13.0925 1.0825 12.185 1.125 11.25 C1.22720143 8.08916179 1.22720143 8.08916179 -0.0625 5.875 C-1 4 -1 4 -0.625 1.75 C-0.41875 1.1725 -0.2125 0.595 0 0 Z " fill="#1A2932" transform="translate(65,87)"/>
<path d="M0 0 C3.96 0 7.92 0 12 0 C12 0.66 12 1.32 12 2 C12.66 2 13.32 2 14 2 C14 1.34 14 0.68 14 0 C15.32 0.33 16.64 0.66 18 1 C17.01 1.495 17.01 1.495 16 2 C15.34786708 4.02463255 15.34786708 4.02463255 15 6 C16.32 6 17.64 6 19 6 C19 6.66 19 7.32 19 8 C17.948125 7.814375 16.89625 7.62875 15.8125 7.4375 C12.42880118 7.04920669 10.23574112 7.11752515 7 8 C7 7.34 7 6.68 7 6 C6.01 6.66 5.02 7.32 4 8 C2.68 8 1.36 8 0 8 C0 5.36 0 2.72 0 0 Z " fill="#925A60" transform="translate(63,6)"/>
<path d="M0 0 C0 0.99 0 1.98 0 3 C-0.99 3.495 -0.99 3.495 -2 4 C-2 5.32 -2 6.64 -2 8 C-3.32 7.67 -4.64 7.34 -6 7 C-6 6.34 -6 5.68 -6 5 C-7.97536745 5.34786708 -7.97536745 5.34786708 -10 6 C-10.33 6.66 -10.66 7.32 -11 8 C-13.64 8 -16.28 8 -19 8 C-19.125 5.625 -19.125 5.625 -19 3 C-16.57800538 0.57800538 -15.64908926 0.65092009 -12.3125 0.375 C-11.42433594 0.30152344 -10.53617188 0.22804687 -9.62109375 0.15234375 C-6.40037954 -0.03485126 -3.22494003 -0.07010739 0 0 Z " fill="#4A3826" transform="translate(148,55)"/>
<path d="M0 0 C1.32 0 2.64 0 4 0 C4.33 2.97 4.66 5.94 5 9 C-0.28 9 -5.56 9 -11 9 C-11.66 7.02 -12.32 5.04 -13 3 C-9.98509443 1.99503148 -7.95818308 1.89664697 -4.8125 1.9375 C-3.91144531 1.94652344 -3.01039062 1.95554687 -2.08203125 1.96484375 C-1.39496094 1.97644531 -0.70789063 1.98804687 0 2 C0 1.34 0 0.68 0 0 Z " fill="#894E55" transform="translate(76,21)"/>
<path d="M0 0 C0 0.66 0 1.32 0 2 C1.32 2.66 2.64 3.32 4 4 C-1.75 5.125 -1.75 5.125 -4 4 C-4.33 5.65 -4.66 7.3 -5 9 C-6.32 9.33 -7.64 9.66 -9 10 C-8.67 8.68 -8.34 7.36 -8 6 C-8.61875 6.185625 -9.2375 6.37125 -9.875 6.5625 C-12 7 -12 7 -14 6 C-14 4.35 -14 2.7 -14 1 C-12.41913952 0.63495397 -10.83516093 0.28339494 -9.25 -0.0625 C-8.36828125 -0.25972656 -7.4865625 -0.45695312 -6.578125 -0.66015625 C-4.01320972 -0.99825872 -2.42908361 -0.81158635 0 0 Z " fill="#252120" transform="translate(102,64)"/>
<path d="M0 0 C1.32 0.33 2.64 0.66 4 1 C3.195625 1.763125 2.39125 2.52625 1.5625 3.3125 C-1.16799024 5.79430898 -1.16799024 5.79430898 -2 9 C-1.01 9.33 -0.02 9.66 1 10 C0.67 10.99 0.34 11.98 0 13 C0.99 13 1.98 13 3 13 C3 13.66 3 14.32 3 15 C2.01 15 1.02 15 0 15 C0 15.99 0 16.98 0 18 C0.99 18.33 1.98 18.66 3 19 C1.35 19 -0.3 19 -2 19 C-2 17.68 -2 16.36 -2 15 C-2.66 15 -3.32 15 -4 15 C-4 13.02 -4 11.04 -4 9 C-5.65 8.67 -7.3 8.34 -9 8 C-8.6875 6.0625 -8.6875 6.0625 -8 4 C-7.01 3.67 -6.02 3.34 -5 3 C-4.34 2.34 -3.68 1.68 -3 1 C-3 1.66 -3 2.32 -3 3 C-2.34 3 -1.68 3 -1 3 C-0.67 2.01 -0.34 1.02 0 0 Z " fill="#262627" transform="translate(138,60)"/>
<path d="M0 0 C0.99 0.33 1.98 0.66 3 1 C3 2.32 3 3.64 3 5 C3.68707031 4.89300781 4.37414062 4.78601562 5.08203125 4.67578125 C5.98308594 4.55589844 6.88414062 4.43601562 7.8125 4.3125 C8.70582031 4.18488281 9.59914062 4.05726562 10.51953125 3.92578125 C13 4 13 4 14.82421875 5.48046875 C15.21222656 5.98191406 15.60023438 6.48335937 16 7 C14.35 7 12.7 7 11 7 C10.67 8.32 10.34 9.64 10 11 C10 9.68 10 8.36 10 7 C7.47636012 7.62533375 7.47636012 7.62533375 5 9 C4.10613836 11.54775306 4.10613836 11.54775306 4 14 C5.32 14.33 6.64 14.66 8 15 C6.35 15.66 4.7 16.32 3 17 C2 16 2 16 1.90234375 14.15234375 C1.93489583 12.1015625 1.96744792 10.05078125 2 8 C1.34 7.67 0.68 7.34 0 7 C0 6.34 0 5.68 0 5 C-0.66 5 -1.32 5 -2 5 C-2.33 6.32 -2.66 7.64 -3 9 C-3.66 8.01 -4.32 7.02 -5 6 C-4.34 6 -3.68 6 -3 6 C-2.67 5.01 -2.34 4.02 -2 3 C-1.34 3 -0.68 3 0 3 C0 2.01 0 1.02 0 0 Z " fill="#2C2115" transform="translate(125,49)"/>
<path d="M0 0 C0.66 1.32 1.32 2.64 2 4 C1.01 4 0.02 4 -1 4 C-1 5.65 -1 7.3 -1 9 C-1.2475 8.0409375 -1.2475 8.0409375 -1.5 7.0625 C-2.781786 4.83880759 -2.781786 4.83880759 -4.9140625 4.51171875 C-6.93575155 4.2724022 -8.96841939 4.13106972 -11 4 C-11.33 4.99 -11.66 5.98 -12 7 C-12.33 6.01 -12.66 5.02 -13 4 C-17.62 4 -22.24 4 -27 4 C-27 4.66 -27 5.32 -27 6 C-27.66 6 -28.32 6 -29 6 C-29 5.34 -29 4.68 -29 4 C-30.60875 4.309375 -30.60875 4.309375 -32.25 4.625 C-35.87619096 4.9876191 -37.08291076 4.98362069 -40 3 C-35.59925469 2.15468755 -31.43555479 1.87137499 -26.95703125 1.8671875 C-26.30675461 1.86623077 -25.65647797 1.86527405 -24.98649597 1.86428833 C-23.62258812 1.86361217 -22.25867694 1.86542682 -20.89477539 1.86962891 C-18.80803246 1.87501152 -16.72150218 1.86965147 -14.63476562 1.86328125 C-12.65959961 1.86521484 -12.65959961 1.86521484 -10.64453125 1.8671875 C-9.44159424 1.86831543 -8.23865723 1.86944336 -6.99926758 1.87060547 C-4 2 -4 2 -1 3 C-0.67 2.01 -0.34 1.02 0 0 Z " fill="#37181A" transform="translate(104,2)"/>
<path d="M0 0 C4.08378283 0.74250597 8.01939223 1.82923301 12 3 C12 4.32 12 5.64 12 7 C11.01 7.33 10.02 7.66 9 8 C8.67 6.68 8.34 5.36 8 4 C7.34 4 6.68 4 6 4 C5.731875 4.969375 5.46375 5.93875 5.1875 6.9375 C4.795625 7.948125 4.40375 8.95875 4 10 C3.01 10.33 2.02 10.66 1 11 C1 10.34 1 9.68 1 9 C-0.32 8.67 -1.64 8.34 -3 8 C-2.01 8 -1.02 8 0 8 C0 5.36 0 2.72 0 0 Z " fill="#5E383B" transform="translate(88,104)"/>
<path d="M0 0 C3.63 0 7.26 0 11 0 C10.67 0.99 10.34 1.98 10 3 C7.9375 3.6875 7.9375 3.6875 6 4 C6.99 4.33 7.98 4.66 9 5 C8.67 5.66 8.34 6.32 8 7 C6.35 6.67 4.7 6.34 3 6 C2.67 6.66 2.34 7.32 2 8 C-0.97 7.505 -0.97 7.505 -4 7 C-4 7.66 -4 8.32 -4 9 C-3.01 9.33 -2.02 9.66 -1 10 C-1.99 10 -2.98 10 -4 10 C-4 10.66 -4 11.32 -4 12 C-2.68 12 -1.36 12 0 12 C0 12.66 0 13.32 0 14 C-1.65 14 -3.3 14 -5 14 C-5 11.36 -5 8.72 -5 6 C-3.68 5.67 -2.36 5.34 -1 5 C-0.67 3.35 -0.34 1.7 0 0 Z " fill="#474040" transform="translate(108,0)"/>
<path d="M0 0 C1.32 0.33 2.64 0.66 4 1 C4 1.66 4 2.32 4 3 C5.32 3 6.64 3 8 3 C8 5.31 8 7.62 8 10 C8.66 10.33 9.32 10.66 10 11 C8.35 11 6.7 11 5 11 C5.66 10.67 6.32 10.34 7 10 C7 9.34 7 8.68 7 8 C5.35 8.33 3.7 8.66 2 9 C1.67 8.34 1.34 7.68 1 7 C1 7.99 1 8.98 1 10 C1.66 10.33 2.32 10.66 3 11 C1.68 11 0.36 11 -1 11 C-2.0257259 6.58937864 -2.03684712 4.07369424 0 0 Z " fill="#573C3F" transform="translate(98,68)"/>
<path d="M0 0 C-0.66 1.32 -1.32 2.64 -2 4 C-1.34 4.33 -0.68 4.66 0 5 C-0.99 5 -1.98 5 -3 5 C-3 5.99 -3 6.98 -3 8 C-2.34 8 -1.68 8 -1 8 C-1 8.66 -1 9.32 -1 10 C-2.32 9.67 -3.64 9.34 -5 9 C-5.33 7.68 -5.66 6.36 -6 5 C-6.33 6.65 -6.66 8.3 -7 10 C-7.66 10 -8.32 10 -9 10 C-8.67 8.35 -8.34 6.7 -8 5 C-8.66 5 -9.32 5 -10 5 C-10.33 6.65 -10.66 8.3 -11 10 C-11.66 10 -12.32 10 -13 10 C-12.34 7.03 -11.68 4.06 -11 1 C-10.67 1.66 -10.34 2.32 -10 3 C-9.01 3 -8.02 3 -7 3 C-6.67 2.01 -6.34 1.02 -6 0 C-3.50907189 -1.24546405 -2.58919267 -0.7767578 0 0 Z " fill="#3B3327" transform="translate(128,4)"/>
<path d="M0 0 C6.75 0.75 6.75 0.75 9 3 C8.625 6.625 8.625 6.625 8 10 C4.97580475 9.41196203 1.98241547 8.77321882 -1 8 C-1.08226668 4.95613276 -0.97608217 2.92824652 0 0 Z " fill="#3E2225" transform="translate(100,53)"/>
<path d="M0 0 C0.66 0 1.32 0 2 0 C2 1.32 2 2.64 2 4 C2.66 3.67 3.32 3.34 4 3 C4.33 2.01 4.66 1.02 5 0 C5 0.66 5 1.32 5 2 C6.32 1.67 7.64 1.34 9 1 C8.52309796 2.62566606 8.04340334 4.25051311 7.5625 5.875 C7.29566406 6.77992187 7.02882813 7.68484375 6.75390625 8.6171875 C6 11 6 11 5 13 C4.34 13 3.68 13 3 13 C3 13.66 3 14.32 3 15 C2.34 15 1.68 15 1 15 C1 16.98 1 18.96 1 21 C0.67 21 0.34 21 0 21 C-0.33 18.36 -0.66 15.72 -1 13 C-0.01 13 0.98 13 2 13 C2.16677282 9.58343976 2.16677282 9.58343976 2 6 C1.34 5.34 0.68 4.68 0 4 C0 2.68 0 1.36 0 0 Z " fill="#341D21" transform="translate(82,75)"/>
<path d="M0 0 C0.598125 0.309375 1.19625 0.61875 1.8125 0.9375 C4.08956772 2.10209704 4.08956772 2.10209704 7 3 C7 2.34 7 1.68 7 1 C7.99 1.33 8.98 1.66 10 2 C10 3.32 10 4.64 10 6 C9.01 6.33 8.02 6.66 7 7 C6.67 8.65 6.34 10.3 6 12 C5.01 11.67 4.02 11.34 3 11 C3 8.69 3 6.38 3 4 C2.01 4.495 2.01 4.495 1 5 C0.67 5.99 0.34 6.98 0 8 C-0.66 8 -1.32 8 -2 8 C-2 7.34 -2 6.68 -2 6 C-2.66 6 -3.32 6 -4 6 C-4 5.34 -4 4.68 -4 4 C-3.01 4 -2.02 4 -1 4 C-0.67 2.68 -0.34 1.36 0 0 Z " fill="#2B1C1D" transform="translate(254,67)"/>
<path d="M0 0 C0 0.99 0 1.98 0 3 C-0.66 3 -1.32 3 -2 3 C-2 5.31 -2 7.62 -2 10 C-2.66 10 -3.32 10 -4 10 C-4 7.69 -4 5.38 -4 3 C-4.66 3 -5.32 3 -6 3 C-6.33 4.98 -6.66 6.96 -7 9 C-8.9375 9.5625 -8.9375 9.5625 -11 10 C-12 9 -12 9 -12.0625 5.4375 C-12.041875 4.303125 -12.02125 3.16875 -12 2 C-11.67 2 -11.34 2 -11 2 C-11 3.98 -11 5.96 -11 8 C-10.01 8 -9.02 8 -8 8 C-8.66 5.36 -9.32 2.72 -10 0 C-6.30458414 -0.95024979 -3.69541586 -0.95024979 0 0 Z " fill="#7B8270" transform="translate(187,53)"/>
<path d="M0 0 C0.66 0 1.32 0 2 0 C2 2.64 2 5.28 2 8 C0.35 8 -1.3 8 -3 8 C-3 7.34 -3 6.68 -3 6 C-3.66 6 -4.32 6 -5 6 C-5 6.66 -5 7.32 -5 8 C-6.65 7.67 -8.3 7.34 -10 7 C-9.67 5.35 -9.34 3.7 -9 2 C-8.2575 2.185625 -7.515 2.37125 -6.75 2.5625 C-4.05009037 2.99203108 -2.55368923 2.85122974 0 2 C0 1.34 0 0.68 0 0 Z " fill="#935C60" transform="translate(93,137)"/>
<path d="M0 0 C1.4783226 2.95664519 1.06032783 5.74229737 1 9 C0.34 9 -0.32 9 -1 9 C-1.33 9.66 -1.66 10.32 -2 11 C-2.99 11 -3.98 11 -5 11 C-5 10.34 -5 9.68 -5 9 C-6.32 8.67 -7.64 8.34 -9 8 C-9.33 6.68 -9.66 5.36 -10 4 C-8.68 3.34 -7.36 2.68 -6 2 C-5.34 2.66 -4.68 3.32 -4 4 C-2.68 2.68 -1.36 1.36 0 0 Z " fill="#44565F" transform="translate(74,136)"/>
<path d="M0 0 C0.66 0 1.32 0 2 0 C2.33 0.33 2.66 0.66 3 1 C3.99 1 4.98 1 6 1 C6.66 1.66 7.32 2.32 8 3 C5.57290687 8.70366886 5.57290687 8.70366886 3.1875 9.9375 C0.35915092 10.01830997 -2.23415604 9.56574081 -5 9 C-4.67 8.34 -4.34 7.68 -4 7 C-2.68 7 -1.36 7 0 7 C0 4.69 0 2.38 0 0 Z " fill="#311F22" transform="translate(108,56)"/>
<path d="M0 0 C0.66 0 1.32 0 2 0 C2 0.66 2 1.32 2 2 C5.3 2 8.6 2 12 2 C11.67 4.31 11.34 6.62 11 9 C10.21625 8.814375 9.4325 8.62875 8.625 8.4375 C6.02910225 7.74037734 6.02910225 7.74037734 4 9 C4 7.35 4 5.7 4 4 C1.5 5 1.5 5 0 9 C0 6.03 0 3.06 0 0 Z " fill="#7D4C52" transform="translate(70,38)"/>
<path d="M0 0 C2.64 0 5.28 0 8 0 C8.33 0.66 8.66 1.32 9 2 C9.33 1.34 9.66 0.68 10 0 C12.64 0 15.28 0 18 0 C17.67 1.65 17.34 3.3 17 5 C16.34 5 15.68 5 15 5 C15 5.99 15 6.98 15 8 C14.34 8 13.68 8 13 8 C12.67 6.02 12.34 4.04 12 2 C11.34 3.65 10.68 5.3 10 7 C8.5 5.6875 8.5 5.6875 7 4 C7 3.01 7 2.02 7 1 C5.68 1 4.36 1 3 1 C3 3.31 3 5.62 3 8 C2.67 8 2.34 8 2 8 C2 5.69 2 3.38 2 1 C1.34 0.67 0.68 0.34 0 0 Z " fill="#995F67" transform="translate(83,6)"/>
<path d="M0 0 C1.32 0 2.64 0 4 0 C4.54372951 3.05847848 5 5.88772805 5 9 C1.91190305 10.76462683 0.76687864 11 -3 11 C-3 9.68 -3 8.36 -3 7 C-2.34 7 -1.68 7 -1 7 C-0.67 4.69 -0.34 2.38 0 0 Z " fill="#28282B" transform="translate(195,58)"/>
<path d="M0 0 C0.66 0 1.32 0 2 0 C2 0.66 2 1.32 2 2 C2.99 2.33 3.98 2.66 5 3 C4.67 4.98 4.34 6.96 4 9 C3.34 7.68 2.68 6.36 2 5 C1.34 6.32 0.68 7.64 0 9 C-2.62113708 9 -4.50935112 8.68707555 -7 8 C-6.67 6.35 -6.34 4.7 -6 3 C-4.35 3 -2.7 3 -1 3 C-0.67 2.01 -0.34 1.02 0 0 Z " fill="#827358" transform="translate(123,54)"/>
<path d="M0 0 C0.763125 0.20625 1.52625 0.4125 2.3125 0.625 C2.3125 2.605 2.3125 4.585 2.3125 6.625 C1.3225 6.625 0.3325 6.625 -0.6875 6.625 C-0.6875 7.615 -0.6875 8.605 -0.6875 9.625 C-3.84865776 8.25516497 -4.6802092 7.6359362 -6.6875 4.625 C-5.39900677 0.7595203 -4.17039106 -0.58191503 0 0 Z " fill="#34464E" transform="translate(55.6875,4.375)"/>
<path d="M0 0 C2.35953094 2.35953094 2.49141413 3.77895617 3 7 C3.99 6.67 4.98 6.34 6 6 C6 7.98 6 9.96 6 12 C3.25 12.25 3.25 12.25 0 12 C-2.375 10 -2.375 10 -4 8 C-2.25 4.125 -2.25 4.125 0 3 C0 2.01 0 1.02 0 0 Z " fill="#442728" transform="translate(68,36)"/>
<path d="M0 0 C0.33 1.32 0.66 2.64 1 4 C2.32 4.33 3.64 4.66 5 5 C4.67 5.53625 4.34 6.0725 4 6.625 C2.77300796 9.5391061 2.85766714 11.86867708 3 15 C2.34 15 1.68 15 1 15 C0.67 13.35 0.34 11.7 0 10 C-0.99 10 -1.98 10 -3 10 C-3 9.01 -3 8.02 -3 7 C-3.66 6.34 -4.32 5.68 -5 5 C-4.34 5 -3.68 5 -3 5 C-2.87625 4.360625 -2.7525 3.72125 -2.625 3.0625 C-2.41875 2.381875 -2.2125 1.70125 -2 1 C-1.34 0.67 -0.68 0.34 0 0 Z M-2 3 C-1.01 4.32 -0.02 5.64 1 7 C0.67 5.68 0.34 4.36 0 3 C-0.66 3 -1.32 3 -2 3 Z " fill="#1C1D21" transform="translate(141,63)"/>
<path d="M0 0 C0.66 0 1.32 0 2 0 C1.34 2.31 0.68 4.62 0 7 C0.99 7 1.98 7 3 7 C3 4.69 3 2.38 3 0 C3.66 0 4.32 0 5 0 C5 0.66 5 1.32 5 2 C6.32 2.33 7.64 2.66 9 3 C9 4.65 9 6.3 9 8 C8.34 8 7.68 8 7 8 C7 6.68 7 5.36 7 4 C6.34 4 5.68 4 5 4 C5 5.65 5 7.3 5 9 C3.576875 8.9690625 3.576875 8.9690625 2.125 8.9375 C-0.90666283 8.77448174 -0.90666283 8.77448174 -3 10 C-2.01 6.7 -1.02 3.4 0 0 Z " fill="#6B686D" transform="translate(73,87)"/>
<path d="M0 0 C7.50769231 0.61538462 7.50769231 0.61538462 10 2.5625 C10.33 3.036875 10.66 3.51125 11 4 C10.34 5.32 9.68 6.64 9 8 C8.34 8 7.68 8 7 8 C7 7.34 7 6.68 7 6 C5.68 6.99 4.36 7.98 3 9 C2.87625 8.360625 2.7525 7.72125 2.625 7.0625 C2.315625 6.0415625 2.315625 6.0415625 2 5 C1.34 4.67 0.68 4.34 0 4 C0 2.68 0 1.36 0 0 Z " fill="#42515A" transform="translate(208,54)"/>
<path d="M0 0 C0.66 0 1.32 0 2 0 C2 0.66 2 1.32 2 2 C2.763125 1.9175 3.52625 1.835 4.3125 1.75 C7 2 7 2 8.8125 4 C9.204375 4.66 9.59625 5.32 10 6 C8.68 6.99 7.36 7.98 6 9 C6.33 7.68 6.66 6.36 7 5 C6.34 5 5.68 5 5 5 C4.34 6.32 3.68 7.64 3 9 C1.68 8.67 0.36 8.34 -1 8 C-0.67 5.36 -0.34 2.72 0 0 Z " fill="#5A5859" transform="translate(137,5)"/>
<path d="M0 0 C2.3828125 0.0234375 2.3828125 0.0234375 5.125 0.375 C6.03507813 0.48585937 6.94515625 0.59671875 7.8828125 0.7109375 C8.93082031 0.85402344 8.93082031 0.85402344 10 1 C9.67 1.66 9.34 2.32 9 3 C8.34 3 7.68 3 7 3 C6.67 4.32 6.34 5.64 6 7 C3.36 7 0.72 7 -2 7 C-2.125 4.625 -2.125 4.625 -2 2 C-1.34 1.34 -0.68 0.68 0 0 Z " fill="#A38B71" transform="translate(131,56)"/>
<path d="M0 0 C3.63 0 7.26 0 11 0 C12 3 12 3 11 6 C10.443125 5.814375 9.88625 5.62875 9.3125 5.4375 C6.60179165 4.92466328 4.67616438 5.43659697 2 6 C1.34 5.67 0.68 5.34 0 5 C0 3.35 0 1.7 0 0 Z " fill="#9F676B" transform="translate(83,57)"/>
<path d="M0 0 C1.32 0.33 2.64 0.66 4 1 C3.01 1.495 3.01 1.495 2 2 C1.34786708 4.02463255 1.34786708 4.02463255 1 6 C2.32 6 3.64 6 5 6 C5 6.66 5 7.32 5 8 C3.948125 7.814375 2.89625 7.62875 1.8125 7.4375 C-1.57119882 7.04920669 -3.76425888 7.11752515 -7 8 C-6.34 5.69 -5.68 3.38 -5 1 C-3.35 1.33 -1.7 1.66 0 2 C0 1.34 0 0.68 0 0 Z " fill="#854D53" transform="translate(77,6)"/>
<path d="M0 0 C0.66 0 1.32 0 2 0 C2 1.32 2 2.64 2 4 C6.29 4.66 10.58 5.32 15 6 C15 6.99 15 7.98 15 9 C14.01 9.495 14.01 9.495 13 10 C12.67 9.34 12.34 8.68 12 8 C11.01 8.33 10.02 8.66 9 9 C8.01 8.01 7.02 7.02 6 6 C5.67 6.66 5.34 7.32 5 8 C5 7.34 5 6.68 5 6 C4.34 6 3.68 6 3 6 C3 6.66 3 7.32 3 8 C1.68 7.67 0.36 7.34 -1 7 C-0.67 4.69 -0.34 2.38 0 0 Z " fill="#261F1F" transform="translate(65,157)"/>
<path d="M0 0 C0.66 0 1.32 0 2 0 C2 0.66 2 1.32 2 2 C3.093125 1.79375 4.18625 1.5875 5.3125 1.375 C9 1 9 1 12 3 C11.01 3 10.02 3 9 3 C9.7763932 6.0745356 9.7763932 6.0745356 12 8 C10.68 8 9.36 8 8 8 C8 6.68 8 5.36 8 4 C7.34 4 6.68 4 6 4 C6 5.32 6 6.64 6 8 C5.34 8 4.68 8 4 8 C4 6.68 4 5.36 4 4 C3.34 4 2.68 4 2 4 C2 5.32 2 6.64 2 8 C1.34 8 0.68 8 0 8 C0 5.36 0 2.72 0 0 Z " fill="#94696D" transform="translate(63,153)"/>
<path d="M0 0 C2.35981813 0.93578995 4.69631264 1.93347808 7 3 C7 3.99 7 4.98 7 6 C8.32 6 9.64 6 11 6 C11 6.66 11 7.32 11 8 C7.37 7.67 3.74 7.34 0 7 C0 5.68 0 4.36 0 3 C-0.66 3 -1.32 3 -2 3 C-2 2.34 -2 1.68 -2 1 C-1.34 0.67 -0.68 0.34 0 0 Z " fill="#412626" transform="translate(235,72)"/>
<path d="M0 0 C1.32 0.33 2.64 0.66 4 1 C3.34 1 2.68 1 2 1 C2.71563266 3.0162233 2.71563266 3.0162233 4 5 C6.05000871 5.80528889 6.05000871 5.80528889 8 6 C7.67 8.64 7.34 11.28 7 14 C7.66 14 8.32 14 9 14 C9 14.66 9 15.32 9 16 C7.35 16 5.7 16 4 16 C4 15.34 4 14.68 4 14 C4.66 14 5.32 14 6 14 C6 13.01 6 12.02 6 11 C5.34 11 4.68 11 4 11 C4 10.01 4 9.02 4 8 C3.01 7.67 2.02 7.34 1 7 C0.67 4.69 0.34 2.38 0 0 Z " fill="#3B2F31" transform="translate(86,64)"/>
<path d="M0 0 C2.97 0.495 2.97 0.495 6 1 C6.33 3.64 6.66 6.28 7 9 C5.68 9 4.36 9 3 9 C2.01 9.33 1.02 9.66 0 10 C0.185625 9.46375 0.37125 8.9275 0.5625 8.375 C1.11419324 5.38009386 0.60597444 2.96254171 0 0 Z " fill="#46504D" transform="translate(169,54)"/>
<path d="M0 0 C3.0625 0.125 3.0625 0.125 5.0625 1.125 C5.0625 1.785 5.0625 2.445 5.0625 3.125 C4.4025 3.125 3.7425 3.125 3.0625 3.125 C3.0625 4.115 3.0625 5.105 3.0625 6.125 C3.7225 6.455 4.3825 6.785 5.0625 7.125 C3.7425 7.125 2.4225 7.125 1.0625 7.125 C1.0625 5.805 1.0625 4.485 1.0625 3.125 C0.0725 3.62 0.0725 3.62 -0.9375 4.125 C-1.2675 5.115 -1.5975 6.105 -1.9375 7.125 C-3.2575 6.465 -4.5775 5.805 -5.9375 5.125 C-3.53035214 0.15022775 -3.53035214 0.15022775 0 0 Z " fill="#5E6A6E" transform="translate(82.9375,71.875)"/>
<path d="M0 0 C2.0625 0.4375 2.0625 0.4375 4 1 C3.01 1 2.02 1 1 1 C1 1.99 1 2.98 1 4 C1.66 4 2.32 4 3 4 C3 5.98 3 7.96 3 10 C3.66 10.33 4.32 10.66 5 11 C4.236875 10.835 3.47375 10.67 2.6875 10.5 C-0.03596236 9.90854604 -0.03596236 9.90854604 -3 10 C-3.66 9.67 -4.32 9.34 -5 9 C-5 7.35 -5 5.7 -5 4 C-2.525 4.99 -2.525 4.99 0 6 C-0.2784375 4.7934375 -0.2784375 4.7934375 -0.5625 3.5625 C-0.706875 2.716875 -0.85125 1.87125 -1 1 C-0.67 0.67 -0.34 0.34 0 0 Z " fill="#24272E" transform="translate(121,69)"/>
<path d="M0 0 C0.33 1.32 0.66 2.64 1 4 C-0.32 4 -1.64 4 -3 4 C-3.33 6.31 -3.66 8.62 -4 11 C-5.32 10.67 -6.64 10.34 -8 10 C-8 7.36 -8 4.72 -8 2 C-2.25 0 -2.25 0 0 0 Z " fill="#1E2417" transform="translate(198,54)"/>
<path d="M0 0 C1.32 0 2.64 0 4 0 C4.33 2.97 4.66 5.94 5 9 C2.36 9 -0.28 9 -3 9 C-2.67 7.68 -2.34 6.36 -2 5 C-2 5.99 -2 6.98 -2 8 C-1.34 8 -0.68 8 0 8 C-0.66 6.02 -1.32 4.04 -2 2 C-1.34 2 -0.68 2 0 2 C0 1.34 0 0.68 0 0 Z " fill="#714449" transform="translate(76,21)"/>
<path d="M0 0 C0.99 0 1.98 0 3 0 C3 2.31 3 4.62 3 7 C3.66 7 4.32 7 5 7 C5 7.66 5 8.32 5 9 C-1.75 8.125 -1.75 8.125 -4 7 C-4 6.01 -4 5.02 -4 4 C-2.68 3.67 -1.36 3.34 0 3 C0 2.01 0 1.02 0 0 Z " fill="#694449" transform="translate(254,71)"/>
<path d="M0 0 C0.268125 0.598125 0.53625 1.19625 0.8125 1.8125 C1.98493467 3.97224808 3.19369282 5.35790256 5 7 C4.34 7 3.68 7 3 7 C2.67 7.99 2.34 8.98 2 10 C0.02 9.34 -1.96 8.68 -4 8 C-3.40072174 4.64404172 -2.15377564 2.62198774 0 0 Z " fill="#342427" transform="translate(239,64)"/>
<path d="M0 0 C0.66 0 1.32 0 2 0 C4.125 5.625 4.125 5.625 3 9 C2.34 9 1.68 9 1 9 C1.33 10.65 1.66 12.3 2 14 C0.68 13.34 -0.64 12.68 -2 12 C-2 11.01 -2 10.02 -2 9 C-1.34 9 -0.68 9 0 9 C-0.33 8.01 -0.66 7.02 -1 6 C-1 2 -1 2 0 0 Z " fill="#2B1F29" transform="translate(53,16)"/>
<path d="M0 0 C0.66 0.33 1.32 0.66 2 1 C1.77183594 1.60328125 1.54367188 2.2065625 1.30859375 2.828125 C1.02113281 3.62734375 0.73367187 4.4265625 0.4375 5.25 C0.14746094 6.03890625 -0.14257812 6.8278125 -0.44140625 7.640625 C-1.04522837 10.19103452 -0.8473932 11.55322229 0 14 C-0.99 13.67 -1.98 13.34 -3 13 C-5.14255793 13.38932856 -5.14255793 13.38932856 -7 14 C-6.67 13.34 -6.34 12.68 -6 12 C-6.99 11.01 -7.98 10.02 -9 9 C-7.68 9 -6.36 9 -5 9 C-5 8.01 -5 7.02 -5 6 C-4.01 6 -3.02 6 -2 6 C-1.34 4.02 -0.68 2.04 0 0 Z " fill="#4A5055" transform="translate(60,153)"/>
<path d="M0 0 C1.32 0 2.64 0 4 0 C4 2.64 4 5.28 4 8 C2.35 8.33 0.7 8.66 -1 9 C-1.09765625 2.84765625 -1.09765625 2.84765625 -1 1 C-0.67 0.67 -0.34 0.34 0 0 Z " fill="#BFC3C7" transform="translate(163,73)"/>
<path d="M0 0 C2.0625 0.4375 2.0625 0.4375 4 1 C5.125 5.75 5.125 5.75 4 8 C2.35 7.67 0.7 7.34 -1 7 C-1.04254356 5.00045254 -1.04080783 2.99958364 -1 1 C-0.67 0.67 -0.34 0.34 0 0 Z " fill="#606062" transform="translate(25,153)"/>
<path d="M0 0 C0.81210937 0.24556641 0.81210937 0.24556641 1.640625 0.49609375 C4.40222593 1.08590587 6.92818139 1.09609308 9.75 1.0625 C10.73484375 1.05347656 11.7196875 1.04445313 12.734375 1.03515625 C13.48203125 1.02355469 14.2296875 1.01195313 15 1 C14.67 1.66 14.34 2.32 14 3 C11.03 3 8.06 3 5 3 C5 4.32 5 5.64 5 7 C5 7.66 5 8.32 5 9 C4.01 9.33 3.02 9.66 2 10 C1.855625 8.906875 1.71125 7.81375 1.5625 6.6875 C1.11711896 3.06877013 1.11711896 3.06877013 0 0 Z " fill="#3F2022" transform="translate(60,21)"/>
<path d="M0 0 C-0.33 2.64 -0.66 5.28 -1 8 C-2.9375 7.25 -2.9375 7.25 -5 6 C-5.75 3.875 -5.75 3.875 -6 2 C-6.99 2.33 -7.98 2.66 -9 3 C-9.66 2.01 -10.32 1.02 -11 0 C-3.57142857 -1.28571429 -3.57142857 -1.28571429 0 0 Z " fill="#4A2024" transform="translate(77,153)"/>
<path d="M0 0 C3.16115776 1.36983503 3.9927092 1.9890638 6 5 C6.66 4.34 7.32 3.68 8 3 C8.625 4.8125 8.625 4.8125 9 7 C8.01 8.485 8.01 8.485 7 10 C5.0625 9.625 5.0625 9.625 3 9 C2.67 8.34 2.34 7.68 2 7 C1.34 6.67 0.68 6.34 0 6 C0.66 5.34 1.32 4.68 2 4 C1.34 2.68 0.68 1.36 0 0 Z " fill="#4B5259" transform="translate(103,138)"/>
<path d="M0 0 C0.66 0 1.32 0 2 0 C2 2.97 2 5.94 2 9 C0.35 9 -1.3 9 -3 9 C-3.625 7.1875 -3.625 7.1875 -4 5 C-3.34 4.01 -2.68 3.02 -2 2 C-1.34 2 -0.68 2 0 2 C0 1.34 0 0.68 0 0 Z " fill="#895556" transform="translate(93,38)"/>
<path d="M0 0 C0.04254356 1.99954746 0.04080783 4.00041636 0 6 C-1 7 -1 7 -3.5625 7.0625 C-4.366875 7.041875 -5.17125 7.02125 -6 7 C-6 4.69 -6 2.38 -6 0 C-3.50907189 -1.24546405 -2.58919267 -0.7767578 0 0 Z " fill="#5F5F61" transform="translate(30,121)"/>
<path d="M0 0 C1 2 1 2 0.44140625 3.9453125 C0.15136719 4.66460937 -0.13867188 5.38390625 -0.4375 6.125 C-0.72496094 6.84945312 -1.01242188 7.57390625 -1.30859375 8.3203125 C-1.53675781 8.87460938 -1.76492187 9.42890625 -2 10 C-5.68754757 9.50168276 -7.60490662 8.89932357 -10 6 C-9.67 5.01 -9.34 4.02 -9 3 C-8.01 2.67 -7.02 2.34 -6 2 C-6 2.66 -6 3.32 -6 4 C-6.66 4 -7.32 4 -8 4 C-8 4.66 -8 5.32 -8 6 C-6.02 6 -4.04 6 -2 6 C-1.855625 5.195625 -1.71125 4.39125 -1.5625 3.5625 C-1 1 -1 1 0 0 Z " fill="#6C7D84" transform="translate(231,71)"/>
<path d="M0 0 C0.99 0.99 1.98 1.98 3 3 C2.01 3 1.02 3 0 3 C0 3.99 0 4.98 0 6 C-0.99 6 -1.98 6 -3 6 C-3 6.99 -3 7.98 -3 9 C-4.7074998 7.71937515 -6.37373596 6.38232443 -8 5 C-8 4.34 -8 3.68 -8 3 C-7.05125 2.690625 -6.1025 2.38125 -5.125 2.0625 C-2.13919592 1.12605258 -2.13919592 1.12605258 0 0 Z " fill="#565359" transform="translate(83,54)"/>
<path d="M0 0 C1.98 0 3.96 0 6 0 C5.814375 1.11375 5.62875 2.2275 5.4375 3.375 C4.68319343 6.82568861 4.68319343 6.82568861 6 9 C2.66476748 7.61990379 0.81392049 6.15049348 -1 3 C-0.67 2.01 -0.34 1.02 0 0 Z " fill="#4A545E" transform="translate(49,152)"/>
<path d="M0 0 C0.33 0.66 0.66 1.32 1 2 C0.67 2.66 0.34 3.32 0 4 C0.99 4 1.98 4 3 4 C3 2.68 3 1.36 3 0 C3.99 0 4.98 0 6 0 C5.5205537 4.21912747 4.83374881 6.79663178 2 10 C1.67 8.68 1.34 7.36 1 6 C0.01 6 -0.98 6 -2 6 C-2 4.35 -2 2.7 -2 1 C-1.34 0.67 -0.68 0.34 0 0 Z " fill="#222020" transform="translate(66,97)"/>
<path d="M0 0 C0.66 0.33 1.32 0.66 2 1 C2 3.31 2 5.62 2 8 C1.67 6.68 1.34 5.36 1 4 C0.34 4 -0.32 4 -1 4 C-1 4.99 -1 5.98 -1 7 C-1.99 7 -2.98 7 -4 7 C-4.33 8.98 -4.66 10.96 -5 13 C-5.33 13 -5.66 13 -6 13 C-6.12375 12.21625 -6.2475 11.4325 -6.375 10.625 C-6.79117993 7.85942178 -6.79117993 7.85942178 -9 6 C-7.88625 5.9071875 -7.88625 5.9071875 -6.75 5.8125 C-3.1814261 4.75814862 -2.07754772 3.00090227 0 0 Z " fill="#361618" transform="translate(101,82)"/>
<path d="M0 0 C1.32 0 2.64 0 4 0 C3.67 1.32 3.34 2.64 3 4 C2.34 4 1.68 4 1 4 C1 6.64 1 9.28 1 12 C0.34 12 -0.32 12 -1 12 C-1 12.66 -1 13.32 -1 14 C-1.99 13.67 -2.98 13.34 -4 13 C-3.34 13 -2.68 13 -2 13 C-2 10.69 -2 8.38 -2 6 C-1.34 6 -0.68 6 0 6 C-0.185625 5.38125 -0.37125 4.7625 -0.5625 4.125 C-1 2 -1 2 0 0 Z " fill="#202317" transform="translate(187,50)"/>
<path d="M0 0 C0.33 0 0.66 0 1 0 C1 1.65 1 3.3 1 5 C3.64 5 6.28 5 9 5 C6.08235 6.9451 4.37462715 7.45276317 1 8 C1.33 9.65 1.66 11.3 2 13 C0.68 13 -0.64 13 -2 13 C-2 12.34 -2 11.68 -2 11 C-2.66 10.34 -3.32 9.68 -4 9 C-3.67 8.34 -3.34 7.68 -3 7 C-2.34 7 -1.68 7 -1 7 C-0.67 4.69 -0.34 2.38 0 0 Z " fill="#2C1B1A" transform="translate(71,25)"/>
<path d="M0 0 C1.32 0 2.64 0 4 0 C4 2.31 4 4.62 4 7 C2.68 7.33 1.36 7.66 0 8 C-0.79953138 4.71303767 -1.09658936 3.28976808 0 0 Z " fill="#9AA786" transform="translate(202,55)"/>
<path d="M0 0 C1.65 0 3.3 0 5 0 C5.125 2.875 5.125 2.875 5 6 C4.34 6.66 3.68 7.32 3 8 C2.01 7.67 1.02 7.34 0 7 C0.66 6.67 1.32 6.34 2 6 C1.01 5.34 0.02 4.68 -1 4 C-0.67 2.68 -0.34 1.36 0 0 Z " fill="#5F5F61" transform="translate(25,137)"/>
<path d="M0 0 C4.95 0 9.9 0 15 0 C15 0.66 15 1.32 15 2 C11.16411068 3.86314624 9.0952526 4.12619447 5 3 C3.6078125 2.7215625 3.6078125 2.7215625 2.1875 2.4375 C1.465625 2.293125 0.74375 2.14875 0 2 C0 1.34 0 0.68 0 0 Z " fill="#38181F" transform="translate(72,104)"/>
<path d="M0 0 C2.0625 0.4375 2.0625 0.4375 4 1 C3.01 1 2.02 1 1 1 C1 1.66 1 2.32 1 3 C2.32 3.33 3.64 3.66 5 4 C4.34 5.32 3.68 6.64 3 8 C1.68 7.67 0.36 7.34 -1 7 C-1.04254356 5.00045254 -1.04080783 2.99958364 -1 1 C-0.67 0.67 -0.34 0.34 0 0 Z " fill="#5E5E60" transform="translate(25,88)"/>
<path d="M0 0 C2.52845528 1.26422764 2.76422764 2.52845528 4 5 C4.66 5.33 5.32 5.66 6 6 C5.67 6.66 5.34 7.32 5 8 C1.23312136 8 0.08809695 7.76462683 -3 6 C-3 5 -3 4 -3 3 C-2.34 3 -1.68 3 -1 3 C-0.67 2.01 -0.34 1.02 0 0 Z " fill="#232B33" transform="translate(75,73)"/>
<path d="M0 0 C0.66 0 1.32 0 2 0 C2 0.66 2 1.32 2 2 C3.32 2.33 4.64 2.66 6 3 C6 4.65 6 6.3 6 8 C5.34 8 4.68 8 4 8 C4 6.68 4 5.36 4 4 C3.34 4 2.68 4 2 4 C2 5.65 2 7.3 2 9 C1.34 9 0.68 9 0 9 C0 6.03 0 3.06 0 0 Z " fill="#B2B6B7" transform="translate(194,71)"/>
<path d="M0 0 C1.67542976 0.28604898 3.34385343 0.61781233 5 1 C4.67 2.65 4.34 4.3 4 6 C2.35 6 0.7 6 -1 6 C-1.042721 4.33388095 -1.04063832 2.66617115 -1 1 C-0.67 0.67 -0.34 0.34 0 0 Z " fill="#9CA0A4" transform="translate(169,73)"/>
<path d="M0 0 C0.94875 0.04125 1.8975 0.0825 2.875 0.125 C2.545 1.115 2.215 2.105 1.875 3.125 C-0.435 2.795 -2.745 2.465 -5.125 2.125 C-3.125 0.125 -3.125 0.125 0 0 Z M-4.125 3.125 C-3.465 4.445 -2.805 5.765 -2.125 7.125 C-4.7916419 8.45832095 -6.29180303 7.79602033 -9.125 7.125 C-8.465 6.795 -7.805 6.465 -7.125 6.125 C-7.125 5.465 -7.125 4.805 -7.125 4.125 C-6.135 3.795 -5.145 3.465 -4.125 3.125 Z " fill="#2E2C2C" transform="translate(197.125,47.875)"/>
<path d="M0 0 C1.98 0 3.96 0 6 0 C6 1.98 6 3.96 6 6 C4.02 6 2.04 6 0 6 C0 4.02 0 2.04 0 0 Z " fill="#9E656D" transform="translate(76,155)"/>
<path d="M0 0 C0.33 0 0.66 0 1 0 C1 2.64 1 5.28 1 8 C-0.32 8.33 -1.64 8.66 -3 9 C-4.125 4.25 -4.125 4.25 -3 2 C-2.01 2 -1.02 2 0 2 C0 1.34 0 0.68 0 0 Z " fill="#935861" transform="translate(100,87)"/>
<path d="M0 0 C0.99 0.33 1.98 0.66 3 1 C3.33 1.99 3.66 2.98 4 4 C3.34 4 2.68 4 2 4 C2 4.99 2 5.98 2 7 C0.02 7 -1.96 7 -4 7 C-4 6.34 -4 5.68 -4 5 C-2.68 5 -1.36 5 0 5 C0 4.34 0 3.68 0 3 C-1.98 3 -3.96 3 -6 3 C-6 2.67 -6 2.34 -6 2 C-4.02 2 -2.04 2 0 2 C0 1.34 0 0.68 0 0 Z " fill="#132226" transform="translate(167,57)"/>
<path d="M0 0 C0.33 0.66 0.66 1.32 1 2 C2.32 2 3.64 2 5 2 C5 3.65 5 5.3 5 7 C3.35 7.33 1.7 7.66 0 8 C0 5.36 0 2.72 0 0 Z " fill="#965C63" transform="translate(77,137)"/>
<path d="M0 0 C2.125 0.375 2.125 0.375 4 1 C4 2.98 4 4.96 4 7 C2.35 6.67 0.7 6.34 -1 6 C-1.625 4.125 -1.625 4.125 -2 2 C-1.34 1.34 -0.68 0.68 0 0 Z " fill="#B9BCBE" transform="translate(150,73)"/>
<path d="M0 0 C2.875 -0.1875 2.875 -0.1875 6 0 C6.66 0.99 7.32 1.98 8 3 C7.01 3.495 7.01 3.495 6 4 C6.66 4.66 7.32 5.32 8 6 C6.02 6 4.04 6 2 6 C1.34 4.02 0.68 2.04 0 0 Z " fill="#282627" transform="translate(67,15)"/>
<path d="M0 0 C0.33 0 0.66 0 1 0 C1 2.64 1 5.28 1 8 C-0.65 7.67 -2.3 7.34 -4 7 C-3.67 5.35 -3.34 3.7 -3 2 C-2.01 2 -1.02 2 0 2 C0 1.34 0 0.68 0 0 Z " fill="#955E64" transform="translate(87,104)"/>
<path d="M0 0 C0.66 0.66 1.32 1.32 2 2 C2.99 2 3.98 2 5 2 C5 3.65 5 5.3 5 7 C3.35 7.33 1.7 7.66 0 8 C0 5.36 0 2.72 0 0 Z " fill="#966064" transform="translate(70,104)"/>
<path d="M0 0 C2.0625 0.4375 2.0625 0.4375 4 1 C4 2.98 4 4.96 4 7 C2.35 7 0.7 7 -1 7 C-1.04254356 5.00045254 -1.04080783 2.99958364 -1 1 C-0.67 0.67 -0.34 0.34 0 0 Z " fill="#9A6166" transform="translate(91,89)"/>
<path d="M0 0 C0.66 0 1.32 0 2 0 C2.33 0.33 2.66 0.66 3 1 C3.99 1 4.98 1 6 1 C6.66 1.66 7.32 2.32 8 3 C5.82575883 5.50037734 4.26954202 6.43628586 1 7 C1.66 5.68 2.32 4.36 3 3 C2.34 3 1.68 3 1 3 C0.67 3.66 0.34 4.32 0 5 C0 3.35 0 1.7 0 0 Z " fill="#271917" transform="translate(108,56)"/>
<path d="M0 0 C0.33 0.66 0.66 1.32 1 2 C1.66 2.33 2.32 2.66 3 3 C2.25 4.9375 2.25 4.9375 1 7 C-1.125 7.75 -1.125 7.75 -3 8 C-3 4 -3 4 -2 1 C-1.34 0.67 -0.68 0.34 0 0 Z " fill="#192933" transform="translate(57,152)"/>
<path d="M0 0 C1.4783226 2.95664519 1.06032783 5.74229737 1 9 C0.34 9 -0.32 9 -1 9 C-1.33 9.66 -1.66 10.32 -2 11 C-2.99 11 -3.98 11 -5 11 C-3.55049545 7.2089881 -1.84827434 3.6125362 0 0 Z " fill="#5D666E" transform="translate(74,136)"/>
<path d="M0 0 C1.98 0 3.96 0 6 0 C6.66 1.32 7.32 2.64 8 4 C6.02 4.99 6.02 4.99 4 6 C3.67 4.68 3.34 3.36 3 2 C2.34 2 1.68 2 1 2 C0.67 2.66 0.34 3.32 0 4 C0 2.68 0 1.36 0 0 Z " fill="#676A75" transform="translate(93,106)"/>
<path d="M0 0 C0.99 0.33 1.98 0.66 3 1 C2.814375 2.11375 2.62875 3.2275 2.4375 4.375 C1.68319343 7.82568861 1.68319343 7.82568861 3 10 C1.68 9.34 0.36 8.68 -1 8 C-0.67 6.68 -0.34 5.36 0 4 C-0.66 4 -1.32 4 -2 4 C-1.34 2.68 -0.68 1.36 0 0 Z " fill="#546067" transform="translate(65,102)"/>
<path d="M0 0 C2.0625 0.4375 2.0625 0.4375 4 1 C4 2.98 4 4.96 4 7 C2.35 6.67 0.7 6.34 -1 6 C-1.042721 4.33388095 -1.04063832 2.66617115 -1 1 C-0.67 0.67 -0.34 0.34 0 0 Z " fill="#BDC2C2" transform="translate(202,73)"/>
<path d="M0 0 C0.33 0 0.66 0 1 0 C1 1.98 1 3.96 1 6 C-1.8125 6.625 -1.8125 6.625 -5 7 C-5.99 6.34 -6.98 5.68 -8 5 C-7.01 4.67 -6.02 4.34 -5 4 C-4.34 3.01 -3.68 2.02 -3 1 C-2.67 1.99 -2.34 2.98 -2 4 C-1.34 2.68 -0.68 1.36 0 0 Z " fill="#2D2210" transform="translate(125,58)"/>
<path d="M0 0 C0.66 0 1.32 0 2 0 C2 0.66 2 1.32 2 2 C2.99 2.33 3.98 2.66 5 3 C4.67 4.98 4.34 6.96 4 9 C3.34 7.68 2.68 6.36 2 5 C1.34 6.32 0.68 7.64 0 9 C-1.15941038 5.52176885 -0.70820884 3.54104422 0 0 Z " fill="#B39B7F" transform="translate(123,54)"/>
<path d="M0 0 C0.99 0 1.98 0 3 0 C3.33 1.98 3.66 3.96 4 6 C2.02 6 0.04 6 -2 6 C-1.125 1.125 -1.125 1.125 0 0 Z " fill="#646466" transform="translate(26,55)"/>
<path d="M0 0 C1.32 0 2.64 0 4 0 C3.67 1.65 3.34 3.3 3 5 C3.66 5.33 4.32 5.66 5 6 C5 6.66 5 7.32 5 8 C3.02 8 1.04 8 -1 8 C0 6 1 4 2 2 C1.34 2 0.68 2 0 2 C0 1.34 0 0.68 0 0 Z " fill="#646466" transform="translate(25,22)"/>
<path d="M0 0 C2 1 2 1 2.6875 2.9375 C3 5 3 5 2 7 C1.01 7 0.02 7 -1 7 C-1 6.34 -1 5.68 -1 5 C-2.65 5 -4.3 5 -6 5 C-4.10646634 3.10646634 -2.15473199 1.5801368 0 0 Z " fill="#24221A" transform="translate(119,0)"/>
<path d="M0 0 C1.98 0.99 1.98 0.99 4 2 C4 1.34 4 0.68 4 0 C4.66 0.33 5.32 0.66 6 1 C4.68 3.64 3.36 6.28 2 9 C1.34 9 0.68 9 0 9 C0 6.03 0 3.06 0 0 Z " fill="#876066" transform="translate(96,139)"/>
<path d="M0 0 C2.0625 0.4375 2.0625 0.4375 4 1 C4 2.66666667 4 4.33333333 4 6 C2.35 6 0.7 6 -1 6 C-1.042721 4.33388095 -1.04063832 2.66617115 -1 1 C-0.67 0.67 -0.34 0.34 0 0 Z " fill="#C4C6C8" transform="translate(215,73)"/>
<path d="M0 0 C0 0.66 0 1.32 0 2 C-0.99 2 -1.98 2 -3 2 C-3 2.99 -3 3.98 -3 5 C-2.34 5 -1.68 5 -1 5 C-1 5.66 -1 6.32 -1 7 C-2.32 6.67 -3.64 6.34 -5 6 C-5.33 4.02 -5.66 2.04 -6 0 C-3.50907189 -1.24546405 -2.58919267 -0.7767578 0 0 Z " fill="#AC9982" transform="translate(161,56)"/>
<path d="M0 0 C1.65 0 3.3 0 5 0 C4.67 1.98 4.34 3.96 4 6 C2.35 5.67 0.7 5.34 -1 5 C-0.67 3.35 -0.34 1.7 0 0 Z " fill="#B59E83" transform="translate(149,57)"/>
<path d="M0 0 C6.0546875 -0.1953125 6.0546875 -0.1953125 8 0 C10 2 10 2 11 4 C10.01 5.485 10.01 5.485 9 7 C7 4 7 4 7 1 C5.68 1 4.36 1 3 1 C3 3.31 3 5.62 3 8 C2.67 8 2.34 8 2 8 C2 5.69 2 3.38 2 1 C1.34 0.67 0.68 0.34 0 0 Z " fill="#99777D" transform="translate(83,6)"/>
<path d="M0 0 C-0.33 1.32 -0.66 2.64 -1 4 C-1.66 4 -2.32 4 -3 4 C-3.33 4.66 -3.66 5.32 -4 6 C-4.66 5.67 -5.32 5.34 -6 5 C-5.67 4.34 -5.34 3.68 -5 3 C-5.66 3 -6.32 3 -7 3 C-7.33 3.66 -7.66 4.32 -8 5 C-8 3.68 -8 2.36 -8 1 C-5.07175348 0.02391783 -3.04386724 -0.08226668 0 0 Z " fill="#281B1C" transform="translate(116,6)"/>
<path d="M0 0 C-0.33 0.99 -0.66 1.98 -1 3 C-1.99 3 -2.98 3 -4 3 C-4.33 3.99 -4.66 4.98 -5 6 C-6.65 6 -8.3 6 -10 6 C-10 5.34 -10 4.68 -10 4 C-8.68 4 -7.36 4 -6 4 C-5.67 3.01 -5.34 2.02 -5 1 C-3 0 -3 0 0 0 Z " fill="#2B1D20" transform="translate(87,149)"/>
<path d="M0 0 C1.125 3.75 1.125 3.75 0 6 C-1.65 5.67 -3.3 5.34 -5 5 C-5 3.68 -5 2.36 -5 1 C-3 0 -3 0 0 0 Z " fill="#9D6871" transform="translate(114,73)"/>
<path d="M0 0 C0.99 0.66 1.98 1.32 3 2 C2.67 2.99 2.34 3.98 2 5 C1.34 5 0.68 5 0 5 C-0.33 5.66 -0.66 6.32 -1 7 C-3.31 6.67 -5.62 6.34 -8 6 C-7.360625 5.896875 -6.72125 5.79375 -6.0625 5.6875 C-5.381875 5.460625 -4.70125 5.23375 -4 5 C-3.67 4.01 -3.34 3.02 -3 2 C-3 2.99 -3 3.98 -3 5 C-0.7763932 3.0745356 -0.7763932 3.0745356 0 0 Z " fill="#1B191B" transform="translate(158,72)"/>
<path d="M0 0 C1.98 0.495 1.98 0.495 4 1 C4 2.98 4 4.96 4 7 C2.35 6.67 0.7 6.34 -1 6 C-0.67 4.02 -0.34 2.04 0 0 Z " fill="#A16A6C" transform="translate(84,40)"/>
<path d="M0 0 C0.66 0.66 1.32 1.32 2 2 C3.31747324 2.69748583 4.64914193 3.36959957 6 4 C5.34 5.32 4.68 6.64 4 8 C3.34 8 2.68 8 2 8 C2 7.34 2 6.68 2 6 C1.01 6.33 0.02 6.66 -1 7 C-1.33 5.02 -1.66 3.04 -2 1 C-1.34 0.67 -0.68 0.34 0 0 Z " fill="#2F282B" transform="translate(77,13)"/>
<path d="M0 0 C1.98 0 3.96 0 6 0 C5.67 1.98 5.34 3.96 5 6 C3.68 5.34 2.36 4.68 1 4 C0.34 4.66 -0.32 5.32 -1 6 C-0.67 4.02 -0.34 2.04 0 0 Z " fill="#BDAD80" transform="translate(129,8)"/>
<path d="M0 0 C0.33 0.99 0.66 1.98 1 3 C1.99 3 2.98 3 4 3 C4 4.98 4 6.96 4 9 C3.34 9 2.68 9 2 9 C2.33 7.35 2.66 5.7 3 4 C2.34 4 1.68 4 1 4 C0.67 5.65 0.34 7.3 0 9 C-0.66 9 -1.32 9 -2 9 C-1.34 6.03 -0.68 3.06 0 0 Z " fill="#B4A48B" transform="translate(117,5)"/>
<path d="M0 0 C0.66 0 1.32 0 2 0 C2.5625 1.9375 2.5625 1.9375 3 4 C2 5 2 5 -1.0625 5.0625 C-2.031875 5.041875 -3.00125 5.02125 -4 5 C-4.33 3.68 -4.66 2.36 -5 1 C-2.525 1.495 -2.525 1.495 0 2 C0 1.34 0 0.68 0 0 Z " fill="#371F22" transform="translate(88,143)"/>
<path d="M0 0 C0.99 0.33 1.98 0.66 3 1 C3 2.65 3 4.3 3 6 C2.01 6.495 2.01 6.495 1 7 C0.01 6.67 -0.98 6.34 -2 6 C-2 4.35 -2 2.7 -2 1 C-1.34 0.67 -0.68 0.34 0 0 Z " fill="#A76B71" transform="translate(85,89)"/>
<path d="M0 0 C0.99 0 1.98 0 3 0 C3 0.66 3 1.32 3 2 C3.66 2 4.32 2 5 2 C5 2.99 5 3.98 5 5 C4.01 5 3.02 5 2 5 C2 5.66 2 6.32 2 7 C1.34 7 0.68 7 0 7 C0 4.69 0 2.38 0 0 Z " fill="#121A15" transform="translate(126,73)"/>
<path d="M0 0 C2.475 0.495 2.475 0.495 5 1 C5 2.65 5 4.3 5 6 C3.35 5.67 1.7 5.34 0 5 C0 3.35 0 1.7 0 0 Z " fill="#A16A74" transform="translate(103,57)"/>
<path d="M0 0 C0.99 0 1.98 0 3 0 C3.33 2.64 3.66 5.28 4 8 C2.35 8 0.7 8 -1 8 C-1 7.34 -1 6.68 -1 6 C-0.34 6 0.32 6 1 6 C1 4.68 1 3.36 1 2 C0.34 1.67 -0.32 1.34 -1 1 C-0.67 0.67 -0.34 0.34 0 0 Z " fill="#646466" transform="translate(25,6)"/>
<path d="M0 0 C1.32 0 2.64 0 4 0 C4.33 2.97 4.66 5.94 5 9 C3.68 8.67 2.36 8.34 1 8 C1.33 6.02 1.66 4.04 2 2 C1.34 2 0.68 2 0 2 C0 1.34 0 0.68 0 0 Z " fill="#83656D" transform="translate(83,152)"/>
<path d="M0 0 C0.66 0 1.32 0 2 0 C2.625 2.375 2.625 2.375 3 5 C2.34 5.66 1.68 6.32 1 7 C-1.125 6.625 -1.125 6.625 -3 6 C-2.01 4.02 -1.02 2.04 0 0 Z " fill="#382526" transform="translate(94,108)"/>
<path d="M0 0 C0.66 0.33 1.32 0.66 2 1 C2 2.32 2 3.64 2 5 C2.31151288 7.33634657 2.64159778 9.67038557 3 12 C2.01 12 1.02 12 0 12 C0.04125 11.0925 0.0825 10.185 0.125 9.25 C0.00468444 6.1217954 -0.3914708 4.61385994 -2 2 C-1.34 1.34 -0.68 0.68 0 0 Z " fill="#5F6D71" transform="translate(66,89)"/>
<path d="M0 0 C2.0625 0.4375 2.0625 0.4375 4 1 C4 2.65 4 4.3 4 6 C2.35 6 0.7 6 -1 6 C-1.042721 4.33388095 -1.04063832 2.66617115 -1 1 C-0.67 0.67 -0.34 0.34 0 0 Z " fill="#CBCCD0" transform="translate(176,73)"/>
<path d="M0 0 C2.0625 0.4375 2.0625 0.4375 4 1 C4 2.65 4 4.3 4 6 C2.35 6 0.7 6 -1 6 C-1.042721 4.33388095 -1.04063832 2.66617115 -1 1 C-0.67 0.67 -0.34 0.34 0 0 Z " fill="#A17074" transform="translate(261,73)"/>
<path d="M0 0 C2.0625 0.4375 2.0625 0.4375 4 1 C4 1.66 4 2.32 4 3 C3.34 3 2.68 3 2 3 C2 3.99 2 4.98 2 6 C2.66 6 3.32 6 4 6 C4 6.66 4 7.32 4 8 C2.68 7.67 1.36 7.34 0 7 C-0.38133299 5.0085944 -0.71325582 3.00720923 -1 1 C-0.67 0.67 -0.34 0.34 0 0 Z " fill="#94686E" transform="translate(248,72)"/>
<path d="M0 0 C1.98 0 3.96 0 6 0 C6 0.66 6 1.32 6 2 C5.34 2 4.68 2 4 2 C4 3.98 4 5.96 4 8 C3.34 8 2.68 8 2 8 C2 6.02 2 4.04 2 2 C1.34 2 0.68 2 0 2 C0 1.34 0 0.68 0 0 Z " fill="#B2B5B3" transform="translate(122,71)"/>
<path d="M0 0 C0 0.66 0 1.32 0 2 C-0.99 2 -1.98 2 -3 2 C-3 2.99 -3 3.98 -3 5 C-2.01 5.33 -1.02 5.66 0 6 C-1.65 6 -3.3 6 -5 6 C-5.33 4.02 -5.66 2.04 -6 0 C-3.50907189 -1.24546405 -2.58919267 -0.7767578 0 0 Z " fill="#B9B9BF" transform="translate(141,73)"/>
<path d="M0 0 C1.32 0 2.64 0 4 0 C4.33 1.98 4.66 3.96 5 6 C3.68 6 2.36 6 1 6 C0.67 4.02 0.34 2.04 0 0 Z " fill="#484A48" transform="translate(195,58)"/>
<path d="M0 0 C0.33 0.99 0.66 1.98 1 3 C1.66 3 2.32 3 3 3 C3.33 4.32 3.66 5.64 4 7 C2.68 7.33 1.36 7.66 0 8 C0 7.34 0 6.68 0 6 C-0.66 5.67 -1.32 5.34 -2 5 C-1.34 3.35 -0.68 1.7 0 0 Z " fill="#2A2830" transform="translate(60,156)"/>
<path d="M0 0 C1.65 0 3.3 0 5 0 C5 0.99 5 1.98 5 3 C4.01 3 3.02 3 2 3 C2 4.65 2 6.3 2 8 C1.01 7.67 0.02 7.34 -1 7 C-0.67 4.69 -0.34 2.38 0 0 Z " fill="#42171A" transform="translate(95,138)"/>
<path d="M0 0 C0.33 0.66 0.66 1.32 1 2 C3.02463255 2.65213292 3.02463255 2.65213292 5 3 C5 4.65 5 6.3 5 8 C4.34 8 3.68 8 3 8 C3 6.68 3 5.36 3 4 C2.34 4 1.68 4 1 4 C0.67 5.32 0.34 6.64 0 8 C0 5.36 0 2.72 0 0 Z " fill="#9F686F" transform="translate(77,87)"/>
<path d="M0 0 C0 0.66 0 1.32 0 2 C-0.66 2 -1.32 2 -2 2 C-2 2.99 -2 3.98 -2 5 C-1.34 5.33 -0.68 5.66 0 6 C-1.32 6 -2.64 6 -4 6 C-4 4.68 -4 3.36 -4 2 C-4.66 2 -5.32 2 -6 2 C-6 1.34 -6 0.68 -6 0 C-3.50907189 -1.24546405 -2.58919267 -0.7767578 0 0 Z " fill="#8D6971" transform="translate(239,73)"/>
<path d="M0 0 C0.66 0.66 1.32 1.32 2 2 C3.32 2.66 4.64 3.32 6 4 C3.03 4.66 0.06 5.32 -3 6 C-3.33 5.01 -3.66 4.02 -4 3 C-3.01 2.67 -2.02 2.34 -1 2 C-0.67 1.34 -0.34 0.68 0 0 Z " fill="#23180E" transform="translate(147,60)"/>
<path d="M0 0 C0.66 0 1.32 0 2 0 C2 0.66 2 1.32 2 2 C2.66 2.33 3.32 2.66 4 3 C3.34 3 2.68 3 2 3 C2 3.99 2 4.98 2 6 C2.66 6 3.32 6 4 6 C4 6.66 4 7.32 4 8 C2.68 7.67 1.36 7.34 0 7 C-0.38133299 5.0085944 -0.71325582 3.00720923 -1 1 C-0.67 0.67 -0.34 0.34 0 0 Z " fill="#946D6F" transform="translate(97,55)"/>
<path d="M0 0 C1.65 0 3.3 0 5 0 C5 0.99 5 1.98 5 3 C3.35 3 1.7 3 0 3 C-0.33 3.99 -0.66 4.98 -1 6 C-2.32 5.34 -3.64 4.68 -5 4 C-3.68 4 -2.36 4 -1 4 C-0.67 2.68 -0.34 1.36 0 0 Z " fill="#402C1C" transform="translate(149,54)"/>
<path d="M0 0 C1.98 0.99 1.98 0.99 4 2 C4 2.99 4 3.98 4 5 C2.02 5.99 2.02 5.99 0 7 C0 4.69 0 2.38 0 0 Z " fill="#5F6D6F" transform="translate(83,23)"/>
<path d="M0 0 C1.98 0.99 1.98 0.99 4 2 C3.34 2 2.68 2 2 2 C2 2.66 2 3.32 2 4 C2.99 3.67 3.98 3.34 5 3 C5.33 4.32 5.66 5.64 6 7 C5.67 6.34 5.34 5.68 5 5 C4.34 5 3.68 5 3 5 C2.67 5.99 2.34 6.98 2 8 C1.34 7.67 0.68 7.34 0 7 C0 4.69 0 2.38 0 0 Z " fill="#1D1D18" transform="translate(134,0)"/>
<path d="M0 0 C2.31 0 4.62 0 7 0 C6.01 0.495 6.01 0.495 5 1 C5 1.66 5 2.32 5 3 C4.21625 3.144375 3.4325 3.28875 2.625 3.4375 C0.03578982 3.87798925 0.03578982 3.87798925 -2 5 C-2 4.01 -2 3.02 -2 2 C-1.34 2 -0.68 2 0 2 C0 1.34 0 0.68 0 0 Z " fill="#2B201C" transform="translate(67,150)"/>
<path d="M0 0 C2.0625 0.4375 2.0625 0.4375 4 1 C4 1.66 4 2.32 4 3 C3.34 3 2.68 3 2 3 C2 3.99 2 4.98 2 6 C2.66 6.33 3.32 6.66 4 7 C2.68 7 1.36 7 0 7 C-0.38133299 5.0085944 -0.71325582 3.00720923 -1 1 C-0.67 0.67 -0.34 0.34 0 0 Z " fill="#9E6A73" transform="translate(97,72)"/>
<path d="M0 0 C1.65 0 3.3 0 5 0 C4.01 0.33 3.02 0.66 2 1 C2 1.66 2 2.32 2 3 C2.99 3.33 3.98 3.66 5 4 C4.01 4 3.02 4 2 4 C2 5.32 2 6.64 2 8 C1.34 8 0.68 8 0 8 C0 5.36 0 2.72 0 0 Z " fill="#A6AE94" transform="translate(188,55)"/>
<path d="M0 0 C0.66 0 1.32 0 2 0 C2 2.97 2 5.94 2 9 C-0.475 8.01 -0.475 8.01 -3 7 C-2.01 6.67 -1.02 6.34 0 6 C0 4.02 0 2.04 0 0 Z " fill="#637378" transform="translate(58,5)"/>
<path d="M0 0 C2.0625 0.4375 2.0625 0.4375 4 1 C4 1.66 4 2.32 4 3 C3.34 3 2.68 3 2 3 C2 3.99 2 4.98 2 6 C2.66 6.33 3.32 6.66 4 7 C2.68 7 1.36 7 0 7 C-0.38133299 5.0085944 -0.71325582 3.00720923 -1 1 C-0.67 0.67 -0.34 0.34 0 0 Z " fill="#9A6E7A" transform="translate(84,72)"/>
<path d="M0 0 C1.32 0.33 2.64 0.66 4 1 C4 2.98 4 4.96 4 7 C4.66 7 5.32 7 6 7 C5.67 8.32 5.34 9.64 5 11 C4.34 10.67 3.68 10.34 3 10 C3 7.36 3 4.72 3 2 C2.01 2 1.02 2 0 2 C0 1.34 0 0.68 0 0 Z " fill="#19191F" transform="translate(130,68)"/>
<path d="M0 0 C0.66 0 1.32 0 2 0 C2 0.66 2 1.32 2 2 C2.66 2.33 3.32 2.66 4 3 C3.01 3 2.02 3 1 3 C1 3.99 1 4.98 1 6 C1.66 6 2.32 6 3 6 C3 6.66 3 7.32 3 8 C1.68 7.67 0.36 7.34 -1 7 C-0.67 4.69 -0.34 2.38 0 0 Z " fill="#B9AA8E" transform="translate(124,6)"/>
<path d="M0 0 C0.99 0 1.98 0 3 0 C3 1.98 3 3.96 3 6 C2.01 6.33 1.02 6.66 0 7 C0 4.69 0 2.38 0 0 Z " fill="#4B1E22" transform="translate(82,154)"/>
<path d="M0 0 C1.9375 0.6875 1.9375 0.6875 4 2 C4.75 4.625 4.75 4.625 5 7 C3.35 6.67 1.7 6.34 0 6 C0.66 5.01 1.32 4.02 2 3 C1.34 2.01 0.68 1.02 0 0 Z " fill="#64757C" transform="translate(103,89)"/>
<path d="M0 0 C-0.99 0.66 -1.98 1.32 -3 2 C-3.72965366 4.56282742 -3.72965366 4.56282742 -4 7 C-4.99 6.67 -5.98 6.34 -7 6 C-7 4.35 -7 2.7 -7 1 C-4.53721199 -0.231394 -2.7204945 -0.07159196 0 0 Z " fill="#361116" transform="translate(264,72)"/>
<path d="M0 0 C0.99 0.33 1.98 0.66 3 1 C3 1.66 3 2.32 3 3 C2.34 3 1.68 3 1 3 C1.33 4.98 1.66 6.96 2 9 C-0.97 8.505 -0.97 8.505 -4 8 C-2.68 7.67 -1.36 7.34 0 7 C0 4.69 0 2.38 0 0 Z " fill="#2F1C0C" transform="translate(154,53)"/>
<path d="M0 0 C0.66 0 1.32 0 2 0 C2 0.99 2 1.98 2 3 C2.99 3.33 3.98 3.66 5 4 C2 6 2 6 -0.1875 5.625 C-0.785625 5.41875 -1.38375 5.2125 -2 5 C-1.34 3.35 -0.68 1.7 0 0 Z " fill="#555D68" transform="translate(99,42)"/>
<path d="M0 0 C0.33 0 0.66 0 1 0 C1.12375 0.78375 1.2475 1.5675 1.375 2.375 C1.79117993 5.14057822 1.79117993 5.14057822 4 7 C1.69 7 -0.62 7 -3 7 C-2.38722388 4.03824877 -1.74627478 2.61941217 0 0 Z " fill="#2D1F0C" transform="translate(135,8)"/>
<path d="M0 0 C0.66 0 1.32 0 2 0 C1.67 2.31 1.34 4.62 1 7 C1.66 7 2.32 7 3 7 C3 7.66 3 8.32 3 9 C1.68 8.67 0.36 8.34 -1 8 C-0.67 5.36 -0.34 2.72 0 0 Z " fill="#AB9A81" transform="translate(137,5)"/>
<path d="M0 0 C0.33 0.66 0.66 1.32 1 2 C1.99 2.33 2.98 2.66 4 3 C3.01 3 2.02 3 1 3 C0.67 4.32 0.34 5.64 0 7 C-1.32 6.34 -2.64 5.68 -4 5 C-3.01 4.67 -2.02 4.34 -1 4 C-0.26676204 1.98491642 -0.26676204 1.98491642 0 0 Z " fill="#501A1C" transform="translate(89,89)"/>
<path d="M0 0 C0.99 0 1.98 0 3 0 C3 1.65 3 3.3 3 5 C3.66 5 4.32 5 5 5 C5 5.66 5 6.32 5 7 C3.35 7 1.7 7 0 7 C0 6.34 0 5.68 0 5 C0.66 5 1.32 5 2 5 C2 4.01 2 3.02 2 2 C1.34 2 0.68 2 0 2 C0 1.34 0 0.68 0 0 Z " fill="#906C71" transform="translate(90,73)"/>
<path d="M0 0 C1.32 0 2.64 0 4 0 C4.33 1.98 4.66 3.96 5 6 C3.35 6 1.7 6 0 6 C0.66 5.67 1.32 5.34 2 5 C2 4.01 2 3.02 2 2 C1.34 2 0.68 2 0 2 C0 1.34 0 0.68 0 0 Z " fill="#B6B6BC" transform="translate(129,73)"/>
<path d="M0 0 C1.32 0.66 2.64 1.32 4 2 C3.01 3.485 3.01 3.485 2 5 C1.34 5 0.68 5 0 5 C-0.33 5.66 -0.66 6.32 -1 7 C-1.04254356 5.00045254 -1.04080783 2.99958364 -1 1 C-0.67 0.67 -0.34 0.34 0 0 Z " fill="#303135" transform="translate(135,68)"/>
<path d="M0 0 C0.99 0.33 1.98 0.66 3 1 C2.67 1.99 2.34 2.98 2 4 C0.68 4 -0.64 4 -2 4 C-2 3.34 -2 2.68 -2 2 C-1.34 2 -0.68 2 0 2 C0 1.34 0 0.68 0 0 Z M-4 3 C-3.01 3.495 -3.01 3.495 -2 4 C-2.33 4.99 -2.66 5.98 -3 7 C-3.33 5.68 -3.66 4.36 -4 3 Z " fill="#332024" transform="translate(261,68)"/>
<path d="M0 0 C2.97 0.495 2.97 0.495 6 1 C6 1.66 6 2.32 6 3 C6.66 3.33 7.32 3.66 8 4 C7.34 4.66 6.68 5.32 6 6 C6 5.34 6 4.68 6 4 C3.03 3.505 3.03 3.505 0 3 C0 2.01 0 1.02 0 0 Z " fill="#251D1D" transform="translate(241,67)"/>
<path d="M0 0 C1.98 0.495 1.98 0.495 4 1 C4 2.66666667 4 4.33333333 4 6 C2.0625 5.6875 2.0625 5.6875 0 5 C-0.33 4.01 -0.66 3.02 -1 2 C-0.67 1.34 -0.34 0.68 0 0 Z " fill="#B2757A" transform="translate(77,41)"/>
<path d="M0 0 C0.66 0 1.32 0 2 0 C2 2.31 2 4.62 2 7 C0.68 6.34 -0.64 5.68 -2 5 C-2 4.01 -2 3.02 -2 2 C-1.34 2 -0.68 2 0 2 C0 1.34 0 0.68 0 0 Z " fill="#6C8489" transform="translate(53,23)"/>
<path d="M0 0 C1.65 1.32 3.3 2.64 5 4 C3.625 5.5 3.625 5.5 2 7 C1.34 7 0.68 7 0 7 C0 4.69 0 2.38 0 0 Z " fill="#70818A" transform="translate(90,154)"/>
<path d="M0 0 C0.66 0 1.32 0 2 0 C1.67 1.98 1.34 3.96 1 6 C0.01 6 -0.98 6 -2 6 C-2 4.68 -2 3.36 -2 2 C-1.34 2 -0.68 2 0 2 C0 1.34 0 0.68 0 0 Z " fill="#814F53" transform="translate(93,137)"/>
<path d="M0 0 C0 1.65 0 3.3 0 5 C-1.32 5.33 -2.64 5.66 -4 6 C-4 4.35 -4 2.7 -4 1 C-1 0 -1 0 0 0 Z " fill="#181C20" transform="translate(214,74)"/>
<path d="M0 0 C2.475 0.99 2.475 0.99 5 2 C5 2.66 5 3.32 5 4 C3.35 4.66 1.7 5.32 0 6 C0 4.02 0 2.04 0 0 Z " fill="#687D82" transform="translate(116,73)"/>
<path d="M0 0 C0.33 0.66 0.66 1.32 1 2 C1.66 2 2.32 2 3 2 C3 3.32 3 4.64 3 6 C2.34 6 1.68 6 1 6 C1 6.66 1 7.32 1 8 C0.01 7.67 -0.98 7.34 -2 7 C-1.34 7 -0.68 7 0 7 C0 4.69 0 2.38 0 0 Z " fill="#141D0B" transform="translate(185,56)"/>
<path d="M0 0 C1.98 0.495 1.98 0.495 4 1 C3.67 2.65 3.34 4.3 3 6 C1.68 5.67 0.36 5.34 -1 5 C-0.67 3.35 -0.34 1.7 0 0 Z " fill="#C2AE95" transform="translate(143,57)"/>
<path d="M0 0 C0.99 0.33 1.98 0.66 3 1 C3 2.65 3 4.3 3 6 C2.01 6.495 2.01 6.495 1 7 C0.34 6.34 -0.32 5.68 -1 5 C-0.67 4.34 -0.34 3.68 0 3 C-0.66 2.34 -1.32 1.68 -2 1 C-1.34 0.67 -0.68 0.34 0 0 Z " fill="#1C1F1E" transform="translate(220,56)"/>
<path d="M0 0 C1.485 0.99 1.485 0.99 3 2 C3.1875 4.625 3.1875 4.625 3 7 C2.01 7 1.02 7 0 7 C0 4.69 0 2.38 0 0 Z " fill="#202912" transform="translate(176,54)"/>
<path d="M0 0 C0.66 0.33 1.32 0.66 2 1 C2 2.98 2 4.96 2 7 C0.68 6.01 -0.64 5.02 -2 4 C-1.34 2.68 -0.68 1.36 0 0 Z " fill="#6A7D81" transform="translate(66,40)"/>
<path d="M0 0 C2 2 2 2 2.25 5.5 C2 9 2 9 0 11 C-0.84098656 6.98195309 -1.05404945 3.98196457 0 0 Z " fill="#37242C" transform="translate(68,36)"/>
<path d="M0 0 C0.99 0.66 1.98 1.32 3 2 C2.34 2 1.68 2 1 2 C1 2.99 1 3.98 1 5 C1.66 5 2.32 5 3 5 C3 5.66 3 6.32 3 7 C2.01 7 1.02 7 0 7 C-0.66 5.02 -1.32 3.04 -2 1 C-1.34 0.67 -0.68 0.34 0 0 Z " fill="#A37175" transform="translate(65,23)"/>
<path d="M0 0 C0.66 0 1.32 0 2 0 C2 0.66 2 1.32 2 2 C4.31 1.34 6.62 0.68 9 0 C9 0.66 9 1.32 9 2 C7.375 3.125 7.375 3.125 5 4 C1.75 3.125 1.75 3.125 -1 2 C-0.67 1.34 -0.34 0.68 0 0 Z " fill="#3B161A" transform="translate(68,12)"/>
<path d="M0 0 C0.66 0 1.32 0 2 0 C2.33 1.65 2.66 3.3 3 5 C1.68 5.33 0.36 5.66 -1 6 C-1.042721 4.33388095 -1.04063832 2.66617115 -1 1 C-0.67 0.67 -0.34 0.34 0 0 Z " fill="#18261F" transform="translate(58,14)"/>
<path d="M0 0 C0.99 0 1.98 0 3 0 C3 1.65 3 3.3 3 5 C3.66 5.33 4.32 5.66 5 6 C3.125 6.625 3.125 6.625 1 7 C0.34 6.34 -0.32 5.68 -1 5 C-0.01 5 0.98 5 2 5 C2 4.34 2 3.68 2 3 C1.34 3 0.68 3 0 3 C0 2.01 0 1.02 0 0 Z " fill="#241905" transform="translate(125,9)"/>
<path d="M0 0 C0.33 0 0.66 0 1 0 C1 2.31 1 4.62 1 7 C0.01 7.33 -0.98 7.66 -2 8 C-1.125 1.125 -1.125 1.125 0 0 Z " fill="#38131B" transform="translate(95,7)"/>
<path d="M0 0 C0.66 0 1.32 0 2 0 C2.33 1.65 2.66 3.3 3 5 C1.02 5.99 1.02 5.99 -1 7 C-0.67 4.69 -0.34 2.38 0 0 Z " fill="#39191D" transform="translate(65,157)"/>
<path d="M0 0 C1.65 0 3.3 0 5 0 C5 3 5 3 3 6 C2.01 4.02 1.02 2.04 0 0 Z " fill="#1A2024" transform="translate(106,139)"/>
<path d="M0 0 C2.97 0.33 5.94 0.66 9 1 C4.82091936 3.08954032 4.19589427 3.16552619 0 2 C0 1.34 0 0.68 0 0 Z " fill="#311514" transform="translate(72,104)"/>
<path d="M0 0 C0.66 0.33 1.32 0.66 2 1 C2 3.31 2 5.62 2 8 C1.67 6.68 1.34 5.36 1 4 C-0.32 4.33 -1.64 4.66 -3 5 C-3 3 -3 3 -1.5 1.375 C-1.005 0.92125 -0.51 0.4675 0 0 Z " fill="#28181E" transform="translate(101,82)"/>
<path d="M0 0 C0.99 0 1.98 0 3 0 C3 1.98 3 3.96 3 6 C1.68 5.67 0.36 5.34 -1 5 C-0.67 3.35 -0.34 1.7 0 0 Z " fill="#D4D5D7" transform="translate(183,73)"/>
<path d="M0 0 C0.33 0.66 0.66 1.32 1 2 C1.99 2 2.98 2 4 2 C4 2.99 4 3.98 4 5 C2.35 5 0.7 5 -1 5 C-0.67 3.35 -0.34 1.7 0 0 Z " fill="#4C4D51" transform="translate(129,68)"/>
<path d="M0 0 C1.32 0.33 2.64 0.66 4 1 C2.02 2.32 0.04 3.64 -2 5 C-2.66 4.67 -3.32 4.34 -4 4 C-3.67 3.01 -3.34 2.02 -3 1 C-3 1.66 -3 2.32 -3 3 C-2.34 3 -1.68 3 -1 3 C-0.67 2.01 -0.34 1.02 0 0 Z " fill="#291D0A" transform="translate(138,60)"/>
<path d="M0 0 C2 3 2 3 2 6 C2.99 6.66 3.98 7.32 5 8 C3.35 7.67 1.7 7.34 0 7 C0 6.34 0 5.68 0 5 C-0.66 4.67 -1.32 4.34 -2 4 C-1.34 2.68 -0.68 1.36 0 0 Z " fill="#18200D" transform="translate(200,56)"/>
<path d="M0 0 C1.32 0 2.64 0 4 0 C3.67 1.65 3.34 3.3 3 5 C2.01 4.67 1.02 4.34 0 4 C0 2.68 0 1.36 0 0 Z " fill="#6D7E85" transform="translate(208,54)"/>
<path d="M0 0 C0.33 0.66 0.66 1.32 1 2 C3.32156597 2.40729228 5.6568787 2.74438677 8 3 C4.61981469 4.04005702 1.5219721 4.08004482 -2 4 C-1.34 2.68 -0.68 1.36 0 0 Z " fill="#221C17" transform="translate(102,12)"/>
<path d="M0 0 C0.66 0.33 1.32 0.66 2 1 C2 2.32 2 3.64 2 5 C0.68 5 -0.64 5 -2 5 C-2 3.68 -2 2.36 -2 1 C-1.34 0.67 -0.68 0.34 0 0 Z " fill="#2F171C" transform="translate(89,9)"/>
</svg>
